<svg xmlns="http://www.w3.org/2000/svg" width="43" height="59" viewBox="0 0 43 59" fill="none">
  <path d="M42.5798 27.7148C42.4406 26.9118 41.9387 26.1916 40.9983 26.0664C35.9715 25.4553 32.1165 22.4056 29.6396 18.0085C28.3533 15.7384 27.5918 13.1901 27.1024 10.6423C26.848 9.29149 26.6223 7.92091 26.4968 6.54394C26.4341 5.85546 26.3761 5.14279 26.2656 4.44541C26.1551 3.74803 25.9108 2.85023 26.0007 2.14009C26.2089 0.323994 24.0034 -0.0369872 23.255 1.00163C22.9927 1.2034 22.7878 1.49106 22.6927 1.84932C21.2998 7.43011 21.0243 13.4949 17.2582 18.1822C15.6183 20.2327 13.4529 21.8093 10.9766 22.7013C9.59285 23.1953 8.15165 23.4782 6.70557 23.6598C5.11152 23.8389 3.49335 23.7629 1.93292 24.1488C0.844892 24.3972 0.497477 25.4103 0.689326 26.3234C0.651716 26.8929 0.886177 27.463 1.47831 27.7238C2.74856 28.3115 4.00957 29.1982 5.17022 29.966C6.307 30.7294 7.37229 31.6047 8.37085 32.5679C10.411 34.5274 12.1411 36.805 13.5135 39.2667C16.44 44.5246 17.4771 50.5834 17.9366 56.5596C17.9367 56.685 17.9321 56.8345 17.9323 56.9598C17.9373 57.1864 17.9947 57.3976 18.0761 57.6133C18.6318 59.5718 21.5288 59.3097 22.0805 57.3822C22.1187 57.3141 22.1329 57.2415 22.1471 57.169C22.9889 54.1425 23.3295 51.0225 24.2667 48.0138C25.1516 45.1458 26.3802 42.2916 28.0101 39.788C29.6019 37.3525 31.6665 35.2809 34.0228 33.6145C35.1437 32.8208 36.3316 32.19 37.5624 31.5922C38.5452 31.1237 39.633 30.6246 40.6779 30.2178C40.7018 30.2223 40.7256 30.2267 40.7495 30.2312C41.2412 30.2476 41.6467 30.0725 41.9471 29.8027C42.8107 29.4372 42.9529 28.4611 42.5798 27.7148ZM31.8234 29.946C28.9327 31.6882 26.4197 34.1525 24.5133 36.9304C22.8213 39.3723 21.5256 41.9382 20.5164 44.6828C19.6592 41.866 18.5156 39.1212 17.0334 36.589C15.4221 33.8321 13.3671 31.3184 10.945 29.2878C10.2428 28.7057 9.48807 28.1389 8.72384 27.6205C10.0314 27.388 11.3103 27.0498 12.546 26.5532C15.4708 25.3939 18.1561 23.438 20.1297 20.9483C21.741 18.9175 22.9509 16.5361 23.8362 14.0441C24.4209 16.3589 25.2632 18.6215 26.4348 20.7198C28.2853 24.0226 31.1234 26.8326 34.4997 28.5398C33.5503 28.9644 32.663 29.4508 31.8234 29.946Z" fill="white"/>
</svg>