<svg xmlns="http://www.w3.org/2000/svg" width="288" height="75" viewBox="0 0 288 75" fill="none">
  <path d="M285 19.5L287.931 38.2726L285 0.5V19.5ZM22.028 45L40.8046 47.9048L22.028 45ZM262.028 45L278.355 54.7182V54.7182L262.028 45ZM24.5126 6.16316L5.67578 3.67854L0.706551 41.3522L19.5434 43.8368L24.5126 6.16316ZM22.028 38.5H285V0.5H22.028V38.5ZM282.069 0.727417C241.82 7.01142 180.313 4.20487 123.999 4.31254C96.7788 4.36458 70.5648 5.13583 50.5087 8.52313C40.581 10.1998 30.6888 12.7411 22.5935 17.0445C14.4428 21.3775 5.25224 29.1617 3.25138 42.0952L40.8046 47.9048C40.2348 51.5883 37.7 52.0496 40.4306 50.5981C43.2166 49.117 48.4313 47.4121 56.837 45.9925C73.4477 43.1871 96.8064 42.3646 124.072 42.3125C176.729 42.2118 243.847 45.1553 287.931 38.2726L282.069 0.727417ZM3.25138 42.0952C1.81773 51.3622 5.66483 59.3279 11.5585 64.4573C16.44 68.7057 22.2893 70.7374 26.6574 71.8658C35.6991 74.2015 47.3592 74.8176 59.2605 74.7576C83.6184 74.6348 115.883 71.5347 146.862 68.2036C178.398 64.8125 208.583 61.1866 230.416 59.665C241.565 58.8879 249.101 58.7801 253.122 59.2006C255.868 59.4878 253.971 59.7462 251.07 57.883C249.163 56.658 245.306 53.4835 243.924 47.5689C242.546 41.6719 244.587 37.1543 245.702 35.2818L278.355 54.7182C280.251 51.5332 282.546 45.8486 280.927 38.9203C279.303 31.9745 274.711 27.9044 271.606 25.9098C266.308 22.5072 260.165 21.73 257.075 21.4068C249.425 20.6066 238.931 20.9793 227.774 21.7569C204.993 23.3446 173.454 27.125 142.799 30.4214C111.586 33.7778 81.1929 36.6465 59.0689 36.7581C47.7294 36.8152 40.1926 36.1149 36.1619 35.0736C33.9939 34.5136 34.838 34.3416 36.5056 35.793C39.1854 38.1253 41.6098 42.7003 40.8046 47.9048L3.25138 42.0952ZM245.702 35.2818C247.349 32.5149 249.408 31.8527 248.949 32.0223C248.33 32.2505 246.352 32.7736 242.134 33.0177C233.682 33.5067 220.703 32.6864 201.574 30.4869C163.232 26.0783 106.939 17.0354 24.5126 6.16316L19.5434 43.8368C100.117 54.4646 158.824 63.8217 197.233 68.2381C216.479 70.4511 232.312 71.6495 244.329 70.9542C250.345 70.6061 256.515 69.7362 262.112 67.6695C267.868 65.5442 274.208 61.6851 278.355 54.7182L245.702 35.2818Z" fill="#FFFCF0"/>
</svg>