<svg xmlns="http://www.w3.org/2000/svg" width="21" height="21" viewBox="0 0 21 21" fill="none">
  <path d="M6.23438 0C6.49545 0 6.74583 0.103711 6.93043 0.288317C7.11504 0.472923 7.21875 0.723303 7.21875 0.984375V2.625H13.7812V0.984375C13.7812 0.723303 13.885 0.472923 14.0696 0.288317C14.2542 0.103711 14.5046 0 14.7656 0C15.0267 0 15.2771 0.103711 15.4617 0.288317C15.6463 0.472923 15.75 0.723303 15.75 0.984375V2.625H17.3906C18.6585 2.625 19.6875 3.654 19.6875 4.92188V18.7031C19.6875 19.3123 19.4455 19.8965 19.0148 20.3273C18.584 20.758 17.9998 21 17.3906 21H3.60938C3.00021 21 2.41599 20.758 1.98524 20.3273C1.55449 19.8965 1.3125 19.3123 1.3125 18.7031V4.92188C1.3125 3.654 2.3415 2.625 3.60938 2.625H5.25V0.984375C5.25 0.723303 5.35371 0.472923 5.53832 0.288317C5.72292 0.103711 5.9733 0 6.23438 0ZM3.28125 9.84375V18.7031C3.28125 18.8843 3.42825 19.0312 3.60938 19.0312H17.3906C17.4776 19.0312 17.5611 18.9967 17.6226 18.9351C17.6842 18.8736 17.7188 18.7901 17.7188 18.7031V9.84375H3.28125ZM17.3906 4.59375H3.60938C3.52235 4.59375 3.43889 4.62832 3.37736 4.68986C3.31582 4.75139 3.28125 4.83485 3.28125 4.92188V7.875H17.7188V4.92188C17.7188 4.83485 17.6842 4.75139 17.6226 4.68986C17.5611 4.62832 17.4776 4.59375 17.3906 4.59375Z" fill="black"/>
</svg>