<svg xmlns="http://www.w3.org/2000/svg" width="51" height="40" viewBox="0 0 51 40" fill="none">
  <g clip-path="url(#clip0_549_320)">
    <path d="M47.2192 7.44045C46.6348 6.59632 45.8556 5.75219 44.8557 5.02494C41.7908 2.50554 38.2065 1.31078 34.2326 1.46662C31.1029 1.59648 27.7393 2.55749 24.22 4.32367C18.3111 7.2976 14.0515 11.5053 13.8697 11.6871C13.4801 12.0637 13.4801 12.687 13.8697 13.0766C14.0645 13.2714 14.3112 13.3623 14.5579 13.3623C14.8047 13.3623 15.0514 13.2714 15.2462 13.0766C15.2852 13.0377 19.4928 8.89495 25.142 6.05088C29.2847 3.97303 33.0638 3.11591 36.4533 3.47954C28.038 5.19377 15.454 15.8298 14.9216 16.2843C14.506 16.635 14.454 17.2583 14.8047 17.6609C14.9995 17.8947 15.2722 18.0115 15.5449 18.0115C15.7657 18.0115 15.9995 17.9336 16.1813 17.7778C16.3111 17.6609 29.3107 6.67424 37.1806 5.32363C40.661 4.72625 43.4142 5.71323 45.3881 8.2586C42.6999 7.2976 38.9987 7.83005 33.921 9.88193C25.4537 13.3104 16.6098 21.3491 16.2332 21.6997C15.8306 22.0634 15.8047 22.6867 16.1683 23.0763C16.3631 23.2841 16.6228 23.388 16.8955 23.388C17.1293 23.388 17.363 23.2971 17.5578 23.1283C17.6487 23.0503 26.5056 14.9857 34.6612 11.7001C40.0117 9.54428 43.6609 9.19364 45.7907 10.6351C46.5309 11.1286 47.1153 11.8819 47.5569 12.8688C47.6218 12.9987 47.7517 13.2974 47.8166 13.5182C47.9595 13.9337 48.0763 14.3883 48.1802 14.8688C48.1023 14.8168 48.0244 14.7779 47.9465 14.7389C45.5829 13.4403 42.6609 13.1156 39.2714 13.8039C36.6481 14.3363 33.7262 15.4662 30.5964 17.1674C25.3108 20.0245 21.272 23.4789 21.1032 23.6347C20.6876 23.9854 20.6487 24.6087 20.9993 25.0113C21.3499 25.4269 21.9733 25.4658 22.3759 25.1152C22.4148 25.0762 26.4537 21.6348 31.5574 18.8686C36.1287 16.4012 42.5181 13.9727 47.0114 16.4531C47.0114 16.4531 47.0114 16.4531 47.0244 16.4531C47.7647 16.8557 48.2192 17.4921 48.388 18.4011C48.9335 21.3101 46.5309 26.5567 42.57 31.1799C42.2194 31.5955 42.2713 32.2059 42.6739 32.5565C42.8557 32.7124 43.0895 32.7903 43.3103 32.7903C43.583 32.7903 43.8557 32.6734 44.0505 32.4526C47.2582 28.7255 50.5698 23.1932 50.5698 18.6998C50.5438 16.9596 50.2451 11.791 47.2192 7.44045Z" fill="#C95E29"/>
    <path d="M39.3234 33.9984C34.7781 37.5957 29.6614 38.6087 24.0641 37.0373C24.1161 37.0373 24.168 37.0373 24.22 37.0373C24.7005 37.0373 25.168 37.0113 25.6355 36.9724C35.2196 36.0373 39.4792 30.6869 39.648 30.4661C39.9857 30.0375 39.9078 29.4272 39.4792 29.0895C39.0507 28.7519 38.4403 28.8298 38.1026 29.2583C38.0637 29.3103 34.2067 34.1673 25.4407 35.0244C22.285 35.3361 19.2851 34.401 16.7787 33.1154C17.2981 33.2192 17.8306 33.2972 18.376 33.3491C19.0513 33.414 19.7266 33.453 20.4149 33.453C24.7135 33.453 29.1029 32.0894 33.2067 29.4791C36.778 27.1935 38.8818 24.7909 38.9727 24.6871C39.3234 24.2845 39.2844 23.6611 38.8689 23.3105C38.4663 22.9598 37.8429 22.9988 37.4923 23.4144C37.4663 23.4403 35.4534 25.739 32.1158 27.8688C27.6874 30.6869 23.1291 31.8816 18.5838 31.4141C15.6358 31.1154 12.9866 30.0895 10.662 28.3493C12.6619 29.0635 14.9216 29.4401 17.2592 29.4401C18.2332 29.4401 19.2201 29.3752 20.2071 29.2453C25.3368 28.5571 30.2977 26.1156 34.5833 22.1806C34.9859 21.817 35.0118 21.1937 34.6482 20.8041C34.2846 20.4015 33.6612 20.3755 33.2716 20.7391C24.9213 28.4142 15.1424 28.7129 9.59708 25.726C7.76597 24.752 5.67513 22.6611 4.14271 20.0119C2.7921 17.2068 2.22069 14.9082 2.15576 14.6224C1.75317 12.4017 1.87005 9.32392 4.15569 6.62271C7.10365 3.1423 10.5841 1.59689 14.493 2.01247C17.454 2.33713 19.5838 3.71371 19.6357 3.73968C20.0902 4.03837 20.6876 3.90851 20.9863 3.46696C21.285 3.01243 21.1681 2.41505 20.7136 2.11636C20.6097 2.05143 18.2072 0.480048 14.7917 0.0904502C11.61 -0.273174 6.92184 0.350182 2.66224 5.36301C0.363609 8.0772 -0.467532 11.5187 0.24673 15.3237C0.597368 17.1678 1.29864 19.0249 2.29861 20.7911C2.72717 21.6872 3.23365 22.6222 3.81804 23.5832C4.51932 24.713 5.27254 25.752 6.0907 26.7C6.25952 26.9207 8.10362 29.2713 11.0905 31.6868C11.5191 32.1024 15.1164 35.5438 20.35 37.7905C23.3109 39.0632 26.2069 39.6996 28.999 39.6996C33.1288 39.6996 37.0377 38.31 40.5311 35.5438C40.9597 35.2062 41.0246 34.5958 40.687 34.1673C40.3623 33.7387 39.739 33.6608 39.3234 33.9984Z" fill="#C95E29"/>
  </g>
  <defs>
    <clipPath id="clip0_549_320">
      <rect width="50.5438" height="39.7" fill="white"/>
    </clipPath>
  </defs>
</svg>