<svg xmlns="http://www.w3.org/2000/svg" width="16" height="15" viewBox="0 0 16 15" fill="none">
  <g clip-path="url(#clip0_193_10471)">
    <path fill-rule="evenodd" clip-rule="evenodd" d="M3.43778 2.73907C3.43765 2.78576 3.42445 2.83148 3.39967 2.87105C3.37489 2.91062 3.33952 2.94246 3.29758 2.96296C3.25563 2.98346 3.20879 2.99181 3.16234 2.98706C3.11589 2.98231 3.07171 2.96465 3.03478 2.93607L1.44178 1.69707C1.41186 1.67369 1.38765 1.6438 1.371 1.60966C1.35436 1.57553 1.3457 1.53805 1.3457 1.50007C1.3457 1.4621 1.35436 1.42462 1.371 1.39048C1.38765 1.35635 1.41186 1.32646 1.44178 1.30307L3.03478 0.0630734C3.07184 0.0343955 3.11621 0.0167098 3.16284 0.0120333C3.20946 0.00735693 3.25646 0.0158781 3.29848 0.036625C3.34049 0.0573718 3.37583 0.0895091 3.40046 0.129371C3.42509 0.169234 3.43803 0.215216 3.43778 0.262073V1.00207H9.43778V0.260073C9.43777 0.213212 9.45093 0.167291 9.47576 0.127548C9.50059 0.0878048 9.53609 0.0558408 9.57821 0.0353018C9.62033 0.0147627 9.66738 0.00647578 9.71398 0.0113862C9.76058 0.0162966 9.80487 0.0342067 9.84178 0.0630734L11.4338 1.30207C11.4637 1.32546 11.4879 1.35535 11.5046 1.38948C11.5212 1.42362 11.5299 1.4611 11.5299 1.49907C11.5299 1.53705 11.5212 1.57453 11.5046 1.60866C11.4879 1.6428 11.4637 1.67269 11.4338 1.69607L9.84178 2.93607C9.8048 2.96499 9.76042 2.98292 9.71373 2.98779C9.66704 2.99266 9.61992 2.98429 9.57776 2.96363C9.5356 2.94297 9.50012 2.91085 9.47536 2.87096C9.45061 2.83107 9.43758 2.78502 9.43778 2.73807V2.00007H3.43778V2.73907ZM9.93778 5.00007H2.93778C2.80518 5.00007 2.678 5.05275 2.58423 5.14652C2.49046 5.24029 2.43778 5.36747 2.43778 5.50007V12.5001C2.43778 12.6327 2.49046 12.7599 2.58423 12.8536C2.678 12.9474 2.80518 13.0001 2.93778 13.0001H9.93778C10.0704 13.0001 10.1976 12.9474 10.2913 12.8536C10.3851 12.7599 10.4378 12.6327 10.4378 12.5001V5.50007C10.4378 5.36747 10.3851 5.24029 10.2913 5.14652C10.1976 5.05275 10.0704 5.00007 9.93778 5.00007ZM2.93778 4.00007C2.53996 4.00007 2.15843 4.15811 1.87712 4.43941C1.59582 4.72072 1.43778 5.10225 1.43778 5.50007V12.5001C1.43778 12.8979 1.59582 13.2794 1.87712 13.5607C2.15843 13.842 2.53996 14.0001 2.93778 14.0001H9.93778C10.3356 14.0001 10.7171 13.842 10.9984 13.5607C11.2797 13.2794 11.4378 12.8979 11.4378 12.5001V5.50007C11.4378 5.10225 11.2797 4.72072 10.9984 4.43941C10.7171 4.15811 10.3356 4.00007 9.93778 4.00007H2.93778ZM15.1768 6.00007H14.4378V12.0001H15.1768C15.2235 12.0002 15.2692 12.0134 15.3088 12.0382C15.3483 12.063 15.3802 12.0983 15.4007 12.1403C15.4212 12.1822 15.4295 12.2291 15.4248 12.2755C15.42 12.322 15.4024 12.3661 15.3738 12.4031L14.1348 13.9961C14.1114 14.026 14.0815 14.0502 14.0474 14.0669C14.0132 14.0835 13.9758 14.0922 13.9378 14.0922C13.8998 14.0922 13.8623 14.0835 13.8282 14.0669C13.7941 14.0502 13.7642 14.026 13.7408 13.9961L12.5008 12.4031C12.4722 12.3661 12.4545 12.3218 12.4498 12.2753C12.4451 12.2287 12.4535 12.1818 12.4741 12.1398C12.4947 12.0979 12.5267 12.0625 12.5664 12.0378C12.6062 12.0131 12.652 12 12.6988 12.0001H13.4378V6.00007H12.6988C12.6521 5.99994 12.6064 5.98674 12.5668 5.96196C12.5272 5.93718 12.4954 5.90181 12.4749 5.85987C12.4544 5.81792 12.446 5.77107 12.4508 5.72463C12.4555 5.67818 12.4732 5.634 12.5018 5.59707L13.7408 4.00407C13.7642 3.97415 13.7941 3.94994 13.8282 3.93329C13.8623 3.91664 13.8998 3.90799 13.9378 3.90799C13.9758 3.90799 14.0132 3.91664 14.0474 3.93329C14.0815 3.94994 14.1114 3.97415 14.1348 4.00407L15.3748 5.59707C15.4034 5.63406 15.4211 5.67834 15.4258 5.72488C15.4305 5.77141 15.4221 5.81834 15.4015 5.86032C15.3808 5.9023 15.3488 5.93765 15.3091 5.96235C15.2694 5.98706 15.2236 6.00013 15.1768 6.00007Z" fill="black"/>
  </g>
  <defs>
    <clipPath id="clip0_193_10471">
      <rect width="15" height="15" fill="white" transform="translate(0.4375)"/>
    </clipPath>
  </defs>
</svg>