<svg xmlns="http://www.w3.org/2000/svg" width="18" height="18" viewBox="0 0 18 18" fill="none">
  <path d="M9 16.5C9 16.5 3 12 3 7.5C3 3.75 6 1.5 9 1.5C12 1.5 15 3.75 15 7.5C15 12 9 16.5 9 16.5ZM9 9.75C9.59674 9.75 10.169 9.51295 10.591 9.09099C11.0129 8.66903 11.25 8.09674 11.25 7.5C11.25 6.90326 11.0129 6.33097 10.591 5.90901C10.169 5.48705 9.59674 5.25 9 5.25C8.40326 5.25 7.83097 5.48705 7.40901 5.90901C6.98705 6.33097 6.75 6.90326 6.75 7.5C6.75 8.09674 6.98705 8.66903 7.40901 9.09099C7.83097 9.51295 8.40326 9.75 9 9.75Z" stroke="#414141" stroke-width="1.5"/>
</svg>