<svg xmlns="http://www.w3.org/2000/svg" width="13" height="17" viewBox="0 0 13 17" fill="none">
  <path d="M11.527 7.64126C11.4721 7.44038 11.3268 7.26905 11.0841 7.25927C9.78861 7.22175 8.73265 6.5368 7.99524 5.47701C7.61262 4.93003 7.35698 4.30004 7.17067 3.66381C7.07321 3.32635 6.98255 2.9832 6.91729 2.63608C6.88465 2.46252 6.85264 2.2827 6.80763 2.10799C6.76262 1.93329 6.67865 1.71077 6.68441 1.52812C6.69354 1.06154 6.12286 1.02148 5.9573 1.30307C5.89534 1.36051 5.85008 1.43845 5.83451 1.53176C5.61456 2.98321 5.69101 4.53151 4.8448 5.81143C4.47655 6.37118 3.96295 6.82276 3.35357 7.10758C3.01296 7.26562 2.65259 7.37131 2.28854 7.45139C1.88672 7.5343 1.47259 7.55291 1.08434 7.6876C0.813131 7.77626 0.74911 8.04195 0.820068 8.26959C0.824256 8.41526 0.897779 8.55469 1.05495 8.60711C1.39281 8.72674 1.73554 8.92262 2.04983 9.0906C2.35793 9.25802 2.65052 9.45558 2.92823 9.67704C3.49541 10.1274 3.99131 10.6658 4.4005 11.2595C5.27327 12.5276 5.68402 14.0436 5.94559 15.5522C5.94865 15.584 5.95109 15.6221 5.95416 15.654C5.96091 15.7115 5.98066 15.7638 6.00661 15.8168C6.19554 16.3016 6.92734 16.1671 7.02131 15.6641C7.02937 15.6459 7.03125 15.6271 7.03312 15.6084C7.17442 14.8192 7.18574 14.018 7.3518 13.2312C7.50792 12.4813 7.75194 11.7269 8.10668 11.0522C8.45335 10.3957 8.92932 9.82063 9.48938 9.34175C9.75577 9.11369 10.0432 8.92547 10.3423 8.74465C10.5814 8.60249 10.8465 8.45011 11.1029 8.32219C11.1091 8.32276 11.1153 8.32333 11.1215 8.3239C11.2471 8.31656 11.3462 8.26254 11.4162 8.18689C11.6274 8.07375 11.6401 7.82225 11.527 7.64126ZM8.8403 8.46066C8.14589 8.97135 7.5652 9.65676 7.14663 10.4077C6.77457 11.0681 6.50648 11.7508 6.31573 12.4723C6.0292 11.7763 5.67147 11.1052 5.23258 10.4962C4.75537 9.83313 4.171 9.24226 3.50479 8.7828C3.31179 8.65128 3.10579 8.52488 2.89854 8.41099C3.22608 8.32122 3.54375 8.20527 3.84659 8.05006C4.56376 7.68676 5.20065 7.12655 5.6433 6.44734C6.00473 5.89327 6.25544 5.2595 6.42074 4.60521C6.62568 5.17999 6.89501 5.73545 7.24424 6.24144C7.7956 7.03771 8.58666 7.68557 9.4882 8.04043C9.25656 8.17064 9.04224 8.31508 8.8403 8.46066Z" fill="black"/>
</svg>