<svg xmlns="http://www.w3.org/2000/svg" width="103" height="101" viewBox="0 0 103 101" fill="none">
  <path d="M90.2392 62.2777C82.2261 83.19 58.7774 93.6469 37.8652 85.6338C16.9529 77.6208 6.49599 54.1721 14.5091 33.2598C22.5221 12.3475 44.2062 6.49588 65.1185 14.509C86.0307 22.522 98.2522 41.3655 90.2392 62.2777Z" fill="#F8B65A"/>
  <path d="M85.1217 60.3171C78.1915 78.4034 57.9115 87.4472 39.8253 80.517C21.739 73.5868 12.6952 53.3069 19.6254 35.2206C23.0819 26.1998 29.4071 20.5975 37.1019 18.0828C44.8262 15.5585 54.0136 16.1223 63.1572 19.6259C72.3008 23.1295 79.5126 28.8494 83.5722 35.8891C87.6163 42.9018 88.5782 51.2964 85.1217 60.3171Z" stroke="#9B4121" stroke-width="2.19187"/>
  <mask id="path-3-inside-1_282_282" fill="white">
    <path d="M43.2727 62.377C42.3396 63.2252 41.4065 64.0735 40.4734 64.8793C39.5827 65.6004 38.6496 66.1517 37.5045 66.3638C35.6383 66.7031 33.6449 65.049 33.6873 63.2252C33.7297 62.4194 34.069 61.7408 34.6204 61.2318C35.0021 60.8501 35.4687 60.5108 35.9352 60.1291C35.8504 60.0867 35.7655 60.0443 35.6383 59.9594C34.9173 59.4929 34.1114 59.1112 33.5177 58.5598C32.0756 57.2026 32.2453 55.1243 33.7721 53.8944C33.8994 53.7671 33.9842 53.555 33.9842 53.343C33.9842 48.5079 33.9842 43.6728 33.9842 38.8377C33.9842 38.2015 34.1538 37.6925 34.5356 37.1836C35.7231 35.6567 36.8683 34.0874 38.0134 32.5606C38.2255 32.2637 38.3103 32.0092 38.3103 31.6275C38.3103 30.5247 38.3103 29.3796 38.3103 28.2344C38.3103 27.5982 38.5648 27.3438 39.201 27.3438C43.3999 27.3438 47.5988 27.3438 51.7977 27.3438C52.4339 27.3438 52.6884 27.5982 52.6884 28.2344C52.6884 29.3796 52.6884 30.5247 52.6884 31.6699C52.6884 31.9244 52.7732 32.2213 52.9429 32.4333C54.1728 34.2147 55.4028 35.8688 56.6752 37.5229C56.9297 37.8198 57.0145 38.1591 57.0145 38.5408C57.0145 39.8132 57.0145 41.128 57.0145 42.358C57.9476 42.6125 58.8383 42.8245 59.6865 43.1638C60.5348 43.5031 61.2982 44.0121 62.1889 44.5211C62.1041 43.9273 62.1041 43.3335 61.9768 42.8245C61.6375 41.6794 61.2558 40.5342 60.8741 39.3891C60.2379 37.3957 60.45 35.3174 61.4255 33.6633C61.8496 33.8754 62.2313 34.0874 62.6555 34.2571C62.4858 34.6812 62.3162 35.1053 62.1889 35.5295C61.8072 36.6746 61.892 37.8198 62.2313 38.9649C62.613 40.1525 62.9948 41.3825 63.3765 42.5701C63.4613 42.8669 63.5037 43.2063 63.5461 43.5456C63.9703 43.3759 64.3944 43.1638 64.7761 42.9942C67.5754 41.9339 70.205 42.6973 71.9863 45.1148C73.2163 46.7265 73.8101 48.6351 74.107 50.5861C74.5311 53.5126 74.0222 56.3119 72.4953 58.8567C71.6046 60.3411 70.4595 61.5287 69.0174 62.4618C69.696 63.0132 70.4171 63.5221 71.0532 64.1159C71.6046 64.6249 72.1136 65.1338 72.4953 65.77C73.1315 66.7879 72.8346 67.7634 71.7319 68.3572C70.7564 68.8662 69.6536 69.0358 68.5509 69.1207C65.6668 69.3751 62.8251 69.2055 59.9834 68.951C56.8024 68.5693 53.6215 68.1452 50.5253 67.4241C48.9136 67.0424 47.3443 66.5335 45.8599 65.7276C44.6723 65.0914 43.7816 64.2007 43.3999 62.8859C43.3575 62.8011 43.3575 62.6739 43.3151 62.589C43.3151 62.5466 43.2727 62.4618 43.2727 62.377ZM61.9344 46.2176C61.68 46.0479 61.4679 45.8783 61.2558 45.7086C60.4076 45.0724 59.5169 44.5211 58.499 44.1818C56.6328 43.588 54.9363 43.9273 53.6639 45.4541C51.5432 47.9565 51.0767 50.9254 51.416 54.064C51.416 54.1488 51.628 54.3185 51.7553 54.3609C52.6884 54.6578 53.6215 54.8699 54.5546 55.1667C59.0079 56.7784 63.2492 58.8567 67.3209 61.3166C67.6178 61.4863 67.7874 61.4863 68.0843 61.3166C69.1447 60.7229 70.0353 59.917 70.7564 58.8991C72.5801 56.3967 73.2163 53.5975 72.7498 50.5861C72.4529 48.7624 71.9015 47.0658 70.7139 45.6238C69.9929 44.7331 69.1022 44.0969 67.9147 43.9697C66.3878 43.7576 65.0306 44.309 63.8006 45.1148C63.7158 45.1573 63.631 45.2421 63.631 45.3269C63.5037 45.9207 63.4189 46.5569 63.3341 47.1507C63.3765 47.1931 63.3765 47.1931 63.4189 47.2355C63.631 46.981 63.843 46.769 64.0551 46.5145C64.4368 46.7265 64.8185 46.981 65.2427 47.1931C64.4792 48.3806 63.4189 49.0168 62.0617 48.9744C60.7469 48.932 59.729 48.3382 59.0079 47.1931C59.4321 46.9386 59.8138 46.7265 60.2379 46.4721C60.5772 46.981 61.0013 47.3627 61.6375 47.4476C61.7224 47.2355 61.7648 47.0658 61.8496 46.8962C61.8072 46.6841 61.8496 46.4296 61.9344 46.2176ZM59.22 67.2969C59.3048 67.2969 59.3048 67.3393 59.3472 67.3393C62.1041 67.6362 64.9034 67.8059 67.6602 67.6362C68.7205 67.5514 69.7384 67.3393 70.7564 67.0848C71.435 66.9152 71.4774 66.6607 71.0532 66.1093C70.1626 65.0066 69.0174 64.2007 67.8299 63.3949C67.6178 64.1159 67.4057 64.8369 67.1937 65.558C66.7271 65.4307 66.2606 65.3035 65.8364 65.1338C66.0485 64.4128 66.2182 63.6918 66.4726 63.0132C66.5999 62.6739 66.515 62.5042 66.2182 62.3346C63.2492 60.5532 60.1531 59.0263 56.9721 57.6691C56.2511 57.3722 55.5301 57.0753 54.809 56.7784C54.2152 58.8567 53.6215 60.8501 53.0277 62.8859C52.5187 62.7587 52.0946 62.6315 51.6705 62.4618C52.2642 60.3836 52.858 58.3477 53.4518 56.2695C51.9674 55.8029 50.4829 55.3788 48.956 55.3364C47.4716 55.294 46.3688 55.9302 45.8175 57.3298C45.3933 58.4326 45.0116 59.6201 44.7995 60.7653C44.5026 62.4618 45.0116 63.5221 46.5385 64.3704C47.0898 64.7097 47.726 64.9642 48.3198 65.1762C50.5253 66.0245 52.8156 66.4062 55.1483 66.7879C55.9966 66.9152 56.8873 67.0424 57.7355 67.1272C57.99 66.2366 58.2445 65.3459 58.5414 64.4552C59.0079 64.5825 59.4745 64.7097 59.8986 64.8793C59.6441 65.77 59.4321 66.5335 59.22 67.2969ZM36.3593 54.6154V54.6578C36.02 54.7002 35.6807 54.7002 35.3414 54.785C33.9842 55.0819 33.5177 56.524 34.4507 57.5419C34.8325 57.9236 35.3414 58.2629 35.808 58.5174C36.5714 58.8567 37.3348 59.1112 38.1407 59.4081C38.5224 59.5353 38.7769 59.7474 38.7769 60.1291C38.7769 60.5108 38.5224 60.7229 38.1831 60.8501C37.6317 61.0622 37.0804 61.2742 36.5714 61.5711C36.1049 61.8256 35.6807 62.2073 35.3414 62.6315C34.8749 63.1828 34.9597 63.819 35.5111 64.328C36.1897 64.9642 36.9531 65.2187 37.8862 64.7945C38.1831 64.6673 38.4376 64.54 38.6921 64.3704C39.8796 63.6494 40.8975 62.6315 41.9154 61.656C42.8909 60.6805 43.6544 59.6201 43.8665 58.2205C43.9089 57.7964 44.0361 57.3722 43.9937 56.9905C43.8665 56.0998 43.6968 55.2092 43.4847 54.3185C43.1454 52.9613 42.7637 51.6465 41.9579 50.5013C41.4065 49.6955 40.6006 49.5258 39.6251 49.7379C38.9889 49.8651 38.6496 50.3317 38.6496 51.0103C38.6496 51.6889 38.9041 52.2827 39.2434 52.834C39.5403 53.3006 39.8796 53.7247 40.1765 54.1912C40.3886 54.4881 40.431 54.7426 40.2189 55.0395C40.0069 55.3364 39.7524 55.4212 39.4131 55.3364C39.2858 55.294 39.1586 55.2516 38.9889 55.2092C38.1407 54.9547 37.25 54.785 36.3593 54.6154ZM35.4262 44.7331C35.4262 47.6172 35.4262 50.4589 35.4262 53.2582C36.2745 53.3006 37.0804 53.343 37.8862 53.3854C37.7165 52.9613 37.5045 52.4947 37.3772 52.0706C36.8683 50.2044 37.759 48.5927 39.5403 48.2958C40.9824 48.0413 42.2548 48.4231 43.1454 49.6955C43.9513 50.8406 44.4178 52.1978 44.7571 53.555C44.9268 54.1912 45.054 54.8274 45.1813 55.4636C45.6478 55.1243 46.0295 54.785 46.4961 54.5306C46.7505 54.3609 46.8778 54.2337 46.8778 53.9368C46.8778 51.0103 46.8778 48.1262 46.8778 45.1997C46.8778 45.0724 46.8778 44.9452 46.8778 44.7755C43.0606 44.7331 39.2434 44.7331 35.4262 44.7331ZM55.5301 38.9649C53.1125 38.9649 50.7374 38.9649 48.3622 38.9649C48.3622 43.9697 48.3622 48.932 48.3622 53.9792C48.8712 53.9792 49.3377 53.9792 49.8467 53.9792C49.8467 53.8095 49.8467 53.6399 49.8043 53.5126C49.6346 51.3072 49.9739 49.1865 50.8222 47.1507C51.7129 45.0724 52.9853 43.3759 55.2756 42.6973C55.3604 42.6549 55.4876 42.5276 55.4876 42.4428C55.5725 41.2977 55.5301 40.1525 55.5301 38.9649ZM46.8778 38.9649C43.0606 38.9649 39.2434 38.9649 35.4262 38.9649C35.4262 40.407 35.4262 41.8066 35.4262 43.2063C39.2434 43.2063 43.0606 43.2063 46.8778 43.2063C46.8778 41.7642 46.8778 40.3646 46.8778 38.9649ZM50.4405 33.2392C50.3557 33.1968 50.3132 33.1968 50.3132 33.1968C46.7505 33.1968 43.1454 33.1968 39.5827 33.1968C39.4555 33.1968 39.2858 33.324 39.201 33.4088C38.2255 34.6812 37.2924 35.9536 36.3593 37.226C36.3169 37.3108 36.2745 37.3957 36.2321 37.4805C39.8796 37.4805 43.4847 37.4805 47.1323 37.4805C47.2595 37.4805 47.3867 37.4381 47.4292 37.3532C48.4047 35.996 49.4226 34.6388 50.4405 33.2392ZM51.2039 28.913C47.3443 28.913 43.5696 28.913 39.7524 28.913C39.7524 29.8885 39.7524 30.8216 39.7524 31.7547C43.5696 31.7547 47.3867 31.7547 51.2039 31.7547C51.2039 30.7792 51.2039 29.8461 51.2039 28.913ZM51.9249 33.6633C50.9494 34.9357 50.0163 36.2081 49.0833 37.4805C50.9919 37.4805 52.858 37.4805 54.7666 37.4805C53.8335 36.1657 52.9004 34.9357 51.9249 33.6633Z"/>
  </mask>
  <path d="M43.2727 62.377C42.3396 63.2252 41.4065 64.0735 40.4734 64.8793C39.5827 65.6004 38.6496 66.1517 37.5045 66.3638C35.6383 66.7031 33.6449 65.049 33.6873 63.2252C33.7297 62.4194 34.069 61.7408 34.6204 61.2318C35.0021 60.8501 35.4687 60.5108 35.9352 60.1291C35.8504 60.0867 35.7655 60.0443 35.6383 59.9594C34.9173 59.4929 34.1114 59.1112 33.5177 58.5598C32.0756 57.2026 32.2453 55.1243 33.7721 53.8944C33.8994 53.7671 33.9842 53.555 33.9842 53.343C33.9842 48.5079 33.9842 43.6728 33.9842 38.8377C33.9842 38.2015 34.1538 37.6925 34.5356 37.1836C35.7231 35.6567 36.8683 34.0874 38.0134 32.5606C38.2255 32.2637 38.3103 32.0092 38.3103 31.6275C38.3103 30.5247 38.3103 29.3796 38.3103 28.2344C38.3103 27.5982 38.5648 27.3438 39.201 27.3438C43.3999 27.3438 47.5988 27.3438 51.7977 27.3438C52.4339 27.3438 52.6884 27.5982 52.6884 28.2344C52.6884 29.3796 52.6884 30.5247 52.6884 31.6699C52.6884 31.9244 52.7732 32.2213 52.9429 32.4333C54.1728 34.2147 55.4028 35.8688 56.6752 37.5229C56.9297 37.8198 57.0145 38.1591 57.0145 38.5408C57.0145 39.8132 57.0145 41.128 57.0145 42.358C57.9476 42.6125 58.8383 42.8245 59.6865 43.1638C60.5348 43.5031 61.2982 44.0121 62.1889 44.5211C62.1041 43.9273 62.1041 43.3335 61.9768 42.8245C61.6375 41.6794 61.2558 40.5342 60.8741 39.3891C60.2379 37.3957 60.45 35.3174 61.4255 33.6633C61.8496 33.8754 62.2313 34.0874 62.6555 34.2571C62.4858 34.6812 62.3162 35.1053 62.1889 35.5295C61.8072 36.6746 61.892 37.8198 62.2313 38.9649C62.613 40.1525 62.9948 41.3825 63.3765 42.5701C63.4613 42.8669 63.5037 43.2063 63.5461 43.5456C63.9703 43.3759 64.3944 43.1638 64.7761 42.9942C67.5754 41.9339 70.205 42.6973 71.9863 45.1148C73.2163 46.7265 73.8101 48.6351 74.107 50.5861C74.5311 53.5126 74.0222 56.3119 72.4953 58.8567C71.6046 60.3411 70.4595 61.5287 69.0174 62.4618C69.696 63.0132 70.4171 63.5221 71.0532 64.1159C71.6046 64.6249 72.1136 65.1338 72.4953 65.77C73.1315 66.7879 72.8346 67.7634 71.7319 68.3572C70.7564 68.8662 69.6536 69.0358 68.5509 69.1207C65.6668 69.3751 62.8251 69.2055 59.9834 68.951C56.8024 68.5693 53.6215 68.1452 50.5253 67.4241C48.9136 67.0424 47.3443 66.5335 45.8599 65.7276C44.6723 65.0914 43.7816 64.2007 43.3999 62.8859C43.3575 62.8011 43.3575 62.6739 43.3151 62.589C43.3151 62.5466 43.2727 62.4618 43.2727 62.377ZM61.9344 46.2176C61.68 46.0479 61.4679 45.8783 61.2558 45.7086C60.4076 45.0724 59.5169 44.5211 58.499 44.1818C56.6328 43.588 54.9363 43.9273 53.6639 45.4541C51.5432 47.9565 51.0767 50.9254 51.416 54.064C51.416 54.1488 51.628 54.3185 51.7553 54.3609C52.6884 54.6578 53.6215 54.8699 54.5546 55.1667C59.0079 56.7784 63.2492 58.8567 67.3209 61.3166C67.6178 61.4863 67.7874 61.4863 68.0843 61.3166C69.1447 60.7229 70.0353 59.917 70.7564 58.8991C72.5801 56.3967 73.2163 53.5975 72.7498 50.5861C72.4529 48.7624 71.9015 47.0658 70.7139 45.6238C69.9929 44.7331 69.1022 44.0969 67.9147 43.9697C66.3878 43.7576 65.0306 44.309 63.8006 45.1148C63.7158 45.1573 63.631 45.2421 63.631 45.3269C63.5037 45.9207 63.4189 46.5569 63.3341 47.1507C63.3765 47.1931 63.3765 47.1931 63.4189 47.2355C63.631 46.981 63.843 46.769 64.0551 46.5145C64.4368 46.7265 64.8185 46.981 65.2427 47.1931C64.4792 48.3806 63.4189 49.0168 62.0617 48.9744C60.7469 48.932 59.729 48.3382 59.0079 47.1931C59.4321 46.9386 59.8138 46.7265 60.2379 46.4721C60.5772 46.981 61.0013 47.3627 61.6375 47.4476C61.7224 47.2355 61.7648 47.0658 61.8496 46.8962C61.8072 46.6841 61.8496 46.4296 61.9344 46.2176ZM59.22 67.2969C59.3048 67.2969 59.3048 67.3393 59.3472 67.3393C62.1041 67.6362 64.9034 67.8059 67.6602 67.6362C68.7205 67.5514 69.7384 67.3393 70.7564 67.0848C71.435 66.9152 71.4774 66.6607 71.0532 66.1093C70.1626 65.0066 69.0174 64.2007 67.8299 63.3949C67.6178 64.1159 67.4057 64.8369 67.1937 65.558C66.7271 65.4307 66.2606 65.3035 65.8364 65.1338C66.0485 64.4128 66.2182 63.6918 66.4726 63.0132C66.5999 62.6739 66.515 62.5042 66.2182 62.3346C63.2492 60.5532 60.1531 59.0263 56.9721 57.6691C56.2511 57.3722 55.5301 57.0753 54.809 56.7784C54.2152 58.8567 53.6215 60.8501 53.0277 62.8859C52.5187 62.7587 52.0946 62.6315 51.6705 62.4618C52.2642 60.3836 52.858 58.3477 53.4518 56.2695C51.9674 55.8029 50.4829 55.3788 48.956 55.3364C47.4716 55.294 46.3688 55.9302 45.8175 57.3298C45.3933 58.4326 45.0116 59.6201 44.7995 60.7653C44.5026 62.4618 45.0116 63.5221 46.5385 64.3704C47.0898 64.7097 47.726 64.9642 48.3198 65.1762C50.5253 66.0245 52.8156 66.4062 55.1483 66.7879C55.9966 66.9152 56.8873 67.0424 57.7355 67.1272C57.99 66.2366 58.2445 65.3459 58.5414 64.4552C59.0079 64.5825 59.4745 64.7097 59.8986 64.8793C59.6441 65.77 59.4321 66.5335 59.22 67.2969ZM36.3593 54.6154V54.6578C36.02 54.7002 35.6807 54.7002 35.3414 54.785C33.9842 55.0819 33.5177 56.524 34.4507 57.5419C34.8325 57.9236 35.3414 58.2629 35.808 58.5174C36.5714 58.8567 37.3348 59.1112 38.1407 59.4081C38.5224 59.5353 38.7769 59.7474 38.7769 60.1291C38.7769 60.5108 38.5224 60.7229 38.1831 60.8501C37.6317 61.0622 37.0804 61.2742 36.5714 61.5711C36.1049 61.8256 35.6807 62.2073 35.3414 62.6315C34.8749 63.1828 34.9597 63.819 35.5111 64.328C36.1897 64.9642 36.9531 65.2187 37.8862 64.7945C38.1831 64.6673 38.4376 64.54 38.6921 64.3704C39.8796 63.6494 40.8975 62.6315 41.9154 61.656C42.8909 60.6805 43.6544 59.6201 43.8665 58.2205C43.9089 57.7964 44.0361 57.3722 43.9937 56.9905C43.8665 56.0998 43.6968 55.2092 43.4847 54.3185C43.1454 52.9613 42.7637 51.6465 41.9579 50.5013C41.4065 49.6955 40.6006 49.5258 39.6251 49.7379C38.9889 49.8651 38.6496 50.3317 38.6496 51.0103C38.6496 51.6889 38.9041 52.2827 39.2434 52.834C39.5403 53.3006 39.8796 53.7247 40.1765 54.1912C40.3886 54.4881 40.431 54.7426 40.2189 55.0395C40.0069 55.3364 39.7524 55.4212 39.4131 55.3364C39.2858 55.294 39.1586 55.2516 38.9889 55.2092C38.1407 54.9547 37.25 54.785 36.3593 54.6154ZM35.4262 44.7331C35.4262 47.6172 35.4262 50.4589 35.4262 53.2582C36.2745 53.3006 37.0804 53.343 37.8862 53.3854C37.7165 52.9613 37.5045 52.4947 37.3772 52.0706C36.8683 50.2044 37.759 48.5927 39.5403 48.2958C40.9824 48.0413 42.2548 48.4231 43.1454 49.6955C43.9513 50.8406 44.4178 52.1978 44.7571 53.555C44.9268 54.1912 45.054 54.8274 45.1813 55.4636C45.6478 55.1243 46.0295 54.785 46.4961 54.5306C46.7505 54.3609 46.8778 54.2337 46.8778 53.9368C46.8778 51.0103 46.8778 48.1262 46.8778 45.1997C46.8778 45.0724 46.8778 44.9452 46.8778 44.7755C43.0606 44.7331 39.2434 44.7331 35.4262 44.7331ZM55.5301 38.9649C53.1125 38.9649 50.7374 38.9649 48.3622 38.9649C48.3622 43.9697 48.3622 48.932 48.3622 53.9792C48.8712 53.9792 49.3377 53.9792 49.8467 53.9792C49.8467 53.8095 49.8467 53.6399 49.8043 53.5126C49.6346 51.3072 49.9739 49.1865 50.8222 47.1507C51.7129 45.0724 52.9853 43.3759 55.2756 42.6973C55.3604 42.6549 55.4876 42.5276 55.4876 42.4428C55.5725 41.2977 55.5301 40.1525 55.5301 38.9649ZM46.8778 38.9649C43.0606 38.9649 39.2434 38.9649 35.4262 38.9649C35.4262 40.407 35.4262 41.8066 35.4262 43.2063C39.2434 43.2063 43.0606 43.2063 46.8778 43.2063C46.8778 41.7642 46.8778 40.3646 46.8778 38.9649ZM50.4405 33.2392C50.3557 33.1968 50.3132 33.1968 50.3132 33.1968C46.7505 33.1968 43.1454 33.1968 39.5827 33.1968C39.4555 33.1968 39.2858 33.324 39.201 33.4088C38.2255 34.6812 37.2924 35.9536 36.3593 37.226C36.3169 37.3108 36.2745 37.3957 36.2321 37.4805C39.8796 37.4805 43.4847 37.4805 47.1323 37.4805C47.2595 37.4805 47.3867 37.4381 47.4292 37.3532C48.4047 35.996 49.4226 34.6388 50.4405 33.2392ZM51.2039 28.913C47.3443 28.913 43.5696 28.913 39.7524 28.913C39.7524 29.8885 39.7524 30.8216 39.7524 31.7547C43.5696 31.7547 47.3867 31.7547 51.2039 31.7547C51.2039 30.7792 51.2039 29.8461 51.2039 28.913ZM51.9249 33.6633C50.9494 34.9357 50.0163 36.2081 49.0833 37.4805C50.9919 37.4805 52.858 37.4805 54.7666 37.4805C53.8335 36.1657 52.9004 34.9357 51.9249 33.6633Z" fill="#C95E29" stroke="#9B4121" stroke-width="26.3025" mask="url(#path-3-inside-1_282_282)"/>
  <path d="M65.9225 40.3646V39.686V39.6731L65.8701 39.7209L65.2504 40.2867C65.4665 40.3305 65.6907 40.3566 65.9225 40.3646ZM65.9225 40.3646L65.9464 39.67L65.9471 39.6506L65.9501 39.6478L65.9878 39.6134L66.0085 39.5945L66.0308 39.6137L66.1581 39.7237L66.4771 39.9992L66.7914 40.2706C66.5163 40.3331 66.2267 40.3646 65.9225 40.3646ZM65.9225 36.5542L65.2802 36.0918C65.4921 36.0518 65.7072 36.0305 65.9225 36.0281V36.5542ZM66.072 36.0294C66.2818 36.0354 66.4911 36.0593 66.6973 36.1011L66.0538 36.5569L66.072 36.0294ZM66.0807 36.6681L66.8716 36.1408C66.8763 36.142 66.881 36.1432 66.8857 36.1444L66.1721 36.7339L66.0807 36.6681ZM65.8736 36.6845L65.8731 36.6849L65.8701 36.6821L65.8736 36.6845ZM66.0719 36.8167L66.044 36.8398L66.0454 36.799L66.0719 36.8167Z" fill="#C95E29" stroke="#9B4121" stroke-width="13.1512"/>
</svg>