<svg xmlns="http://www.w3.org/2000/svg" width="103" height="101" viewBox="0 0 103 101" fill="none">
  <path d="M90.2392 62.2777C82.2261 83.19 58.7774 93.6469 37.8652 85.6338C16.9529 77.6208 6.49599 54.1721 14.5091 33.2598C22.5221 12.3475 44.2062 6.49588 65.1185 14.509C86.0307 22.522 98.2522 41.3655 90.2392 62.2777Z" fill="#F8B65A"/>
  <path d="M85.1217 60.3171C78.1915 78.4034 57.9115 87.4472 39.8253 80.517C21.739 73.5868 12.6952 53.3069 19.6254 35.2206C23.0819 26.1998 29.4071 20.5975 37.1019 18.0828C44.8262 15.5585 54.0136 16.1223 63.1572 19.6259C72.3008 23.1295 79.5126 28.8494 83.5722 35.8891C87.6163 42.9018 88.5782 51.2964 85.1217 60.3171Z" stroke="#9B4121" stroke-width="2.19187"/>
  <path d="M50.052 61.8065C50.6008 62.0417 50.6792 62.1201 50.6792 62.6689C50.6792 64.1585 50.6792 65.7265 50.6792 67.2161C50.6792 67.7649 50.444 68.0001 49.8952 68.0001C47.1512 68.0001 44.3288 68.0001 41.5848 68.0001C40.9576 68.0001 40.8008 67.7649 40.8008 67.2161C40.8008 65.7265 40.8008 64.2369 40.8008 62.7473C40.8008 62.2769 40.8792 61.8849 41.428 61.8065C41.428 61.3361 41.428 60.7873 41.428 60.3169C41.428 59.7681 41.1144 59.2977 40.7224 58.9057C39.3896 57.7297 38.1352 56.6321 36.8808 55.4561C36.2536 54.9073 35.8616 54.2801 35.7048 53.4961C34.8424 50.2817 33.98 47.0673 33.1176 43.8529C32.804 42.6769 33.1176 41.7361 34.0584 41.0305C34.1368 40.9521 34.2152 40.7953 34.2152 40.7169C34.2936 39.3841 35.0776 38.3649 36.2536 38.2081C37.4296 38.0513 38.5272 38.8353 38.9976 40.0897C39.86 42.5985 40.7224 45.1857 41.6632 47.6945C41.7416 47.8513 41.82 48.0081 41.9768 48.0865C43.7016 49.1057 45.5048 50.1249 47.2296 51.2225C49.1112 52.3201 50.052 54.0449 50.052 56.2401C50.052 58.0433 50.052 59.9249 50.052 61.8065ZM48.7976 61.8065C48.7976 59.8465 48.7976 57.9649 48.7976 56.0833C48.7976 54.3585 48.092 53.0257 46.6024 52.1633C44.8776 51.1441 43.0744 50.1249 41.3496 49.1057C40.644 48.7137 39.9384 48.8705 39.5464 49.4977C39.1544 50.1249 39.3896 50.8305 40.0952 51.2225C41.1928 51.8497 42.2904 52.4769 43.388 53.1041C43.78 53.3393 43.9368 53.7313 43.7016 54.0449C43.4664 54.3585 43.1528 54.4369 42.7608 54.2017C41.6632 53.5745 40.4872 52.9473 39.3896 52.2417C38.2136 51.6145 37.8216 50.3601 38.3704 49.0273C38.4488 48.8705 38.4488 48.7137 38.4488 48.6353C37.8216 46.6753 37.1944 44.7153 36.5672 42.7553C36.4104 42.2849 36.0184 41.9713 35.548 41.8929C34.6856 41.7361 33.98 42.5985 34.2936 43.5393C35.156 46.8321 36.0184 50.1249 36.9592 53.4177C37.0376 53.8097 37.3512 54.2017 37.6648 54.5153C38.9192 55.6913 40.252 56.8673 41.5848 58.0433C42.3688 58.7489 42.7608 59.6113 42.7608 60.6305C42.7608 61.0225 42.7608 61.4145 42.7608 61.8065C44.7208 61.8065 46.7592 61.8065 48.7976 61.8065ZM42.0552 63.0609C42.0552 64.3153 42.0552 65.4913 42.0552 66.7457C44.564 66.7457 46.9944 66.7457 49.4248 66.7457C49.4248 65.4913 49.4248 64.3153 49.4248 63.0609C46.916 63.0609 44.4856 63.0609 42.0552 63.0609ZM35.3912 40.6385C36.8808 40.9521 37.3512 41.4225 37.9 42.9121C37.9784 43.2257 38.0568 43.4609 38.1352 43.7745C38.6056 45.1073 38.9976 46.5185 39.468 47.9297C39.7816 47.8513 40.0168 47.7729 40.252 47.6945C39.86 46.4401 39.3896 45.2641 38.9976 44.0881C38.6056 42.9121 38.1352 41.6577 37.7432 40.4817C37.508 39.8545 36.8808 39.4625 36.2536 39.5409C35.7832 39.6193 35.3912 40.0897 35.3912 40.6385Z" fill="#9B4121"/>
  <path d="M61.1848 61.8065C61.7336 62.0417 61.812 62.1201 61.812 62.6689C61.812 64.1585 61.812 65.7265 61.812 67.2161C61.812 67.7649 61.5768 68.0001 61.028 68.0001C58.284 68.0001 55.4616 68.0001 52.7176 68.0001C52.1688 68.0001 51.9336 67.7649 51.9336 67.2161C51.9336 65.6481 51.9336 64.1585 51.9336 62.5905C51.9336 62.1201 52.0904 61.8849 52.5608 61.8065C52.5608 61.3361 52.5608 60.7873 52.5608 60.3169C52.5608 58.9057 52.5608 57.4945 52.5608 56.1617C52.5608 53.9665 53.5016 52.3201 55.3832 51.1441C57.108 50.1249 58.8328 49.1057 60.636 48.0865C60.7928 48.0081 60.9496 47.8513 61.028 47.6945C61.8904 45.1857 62.8312 42.5985 63.6936 40.0897C64.164 38.8353 65.2616 38.1297 66.516 38.2865C67.692 38.4433 68.5544 39.4625 68.5544 40.7953C68.5544 40.9521 68.6328 41.1089 68.7112 41.1873C69.5736 41.8929 69.9656 42.8337 69.652 43.8529C68.7896 47.2241 67.8488 50.5953 66.9864 53.8881C66.8296 54.5153 66.516 54.9857 66.0456 55.3777C64.7912 56.5537 63.4584 57.6513 62.204 58.7489C61.4984 59.3761 61.1064 60.0033 61.1848 60.7873C61.1848 61.1009 61.1848 61.4929 61.1848 61.8065ZM59.9304 61.8065C59.9304 61.4145 59.9304 61.0225 59.9304 60.6305C59.9304 59.5329 60.3224 58.6705 61.1064 57.9649C62.4392 56.7889 63.6936 55.6913 65.0264 54.5153C65.34 54.2017 65.6536 53.8097 65.732 53.4177C66.6728 50.1249 67.5352 46.9105 68.3976 43.6177C68.6328 42.8337 68.2408 42.2065 67.6136 41.9713C66.9864 41.8145 66.2808 42.2065 66.0456 42.9121C65.4184 44.7937 64.7912 46.6753 64.2424 48.5569C64.164 48.7137 64.164 48.9489 64.2424 49.1057C64.7912 50.3601 64.3992 51.6145 63.2232 52.3201C62.7528 52.5553 62.3608 52.8689 61.8904 53.1041C61.1848 53.4961 60.4792 53.9665 59.7736 54.3585C59.3816 54.5937 58.9112 54.4369 58.8328 53.9665C58.7544 53.6529 58.9896 53.4177 59.2248 53.2609C60.3224 52.6337 61.4984 52.0065 62.596 51.3009C63.2232 50.9089 63.4584 50.2033 63.0664 49.5761C62.7528 48.9489 61.9688 48.7921 61.3416 49.1057C59.46 50.2033 57.5784 51.2225 55.7752 52.3985C54.4424 53.1825 53.8152 54.4369 53.7368 56.0049C53.7368 57.8865 53.7368 59.7681 53.7368 61.7281C53.7368 61.8065 53.7368 61.8849 53.7368 61.8849C55.8536 61.8065 57.892 61.8065 59.9304 61.8065ZM60.5576 66.7457C60.5576 65.4913 60.5576 64.3153 60.5576 63.0609C58.0488 63.0609 55.6184 63.0609 53.188 63.0609C53.188 64.3153 53.188 65.4913 53.188 66.7457C55.6184 66.7457 58.0488 66.7457 60.5576 66.7457ZM67.2216 40.6385C67.2216 40.0113 66.8296 39.5409 66.2808 39.4625C65.6536 39.3841 65.0264 39.6977 64.8696 40.4033C64.2424 42.1281 63.6936 43.7745 63.0664 45.4993C62.8312 46.2049 62.596 46.9105 62.2824 47.6945C62.596 47.7729 62.8312 47.8513 63.1448 47.9297C63.6936 46.1265 64.3208 44.4017 64.8696 42.5985C65.1832 41.7361 65.732 41.1089 66.5944 40.8737C66.7512 40.7169 66.9864 40.7169 67.2216 40.6385Z" fill="#9B4121"/>
  <path d="M51.3061 32.7984C52.3253 31.8576 53.4229 31.3088 54.7557 31.0736C58.1269 30.5248 61.5765 33.112 61.8117 36.5616C61.9685 38.6 61.3413 40.2464 59.9301 41.736C57.2645 44.4016 54.5989 47.0672 51.9333 49.7328C51.3845 50.2816 51.1494 50.2816 50.679 49.7328C47.935 46.9888 45.191 44.3232 42.5254 41.5792C39.5462 38.5216 40.4086 33.5824 44.0934 31.7008C46.2886 30.5248 49.111 30.9168 50.9926 32.5632C51.071 32.6416 51.1494 32.72 51.3061 32.7984ZM51.3061 48.5568C51.3845 48.4784 51.3846 48.4784 51.4629 48.4784C54.1285 45.8128 56.7941 43.2256 59.3813 40.56C61.1845 38.6784 61.1061 35.6208 59.2245 33.7392C57.3429 31.8576 54.2853 31.7792 52.4037 33.5824C52.0901 33.7392 51.9333 33.9744 51.6981 34.1312C51.4629 34.3664 51.0709 34.3664 50.8358 34.1312C50.679 33.9744 50.4438 33.7392 50.287 33.5824C48.6406 32.0928 46.2102 31.7792 44.3286 32.9552C41.5846 34.6016 41.1142 38.3648 43.3878 40.7168C45.8966 43.304 48.4838 45.8128 51.071 48.4C51.1494 48.4 51.2277 48.4784 51.3061 48.5568Z" fill="#9B4121"/>
  <path d="M53.1879 41.4223C53.1879 42.0495 53.1879 42.5983 53.1879 43.1471C53.1879 43.6959 52.9527 43.9311 52.4039 43.9311C51.6983 43.9311 50.9143 43.9311 50.2087 43.9311C49.7383 43.9311 49.5032 43.6959 49.5032 43.2255C49.5032 42.6767 49.5032 42.1279 49.5032 41.5007C48.9544 41.5007 48.4056 41.5007 47.8568 41.5007C47.2296 41.5007 47.0728 41.2655 47.0728 40.7167C47.0728 40.0111 47.0728 39.3055 47.0728 38.5215C47.0728 38.0511 47.308 37.8159 47.7784 37.8159C48.3272 37.8159 48.876 37.8159 49.5032 37.8159C49.5032 37.2671 49.5032 36.7183 49.5032 36.1695C49.5032 35.6207 49.7383 35.3855 50.2871 35.3855C50.9927 35.3855 51.6983 35.3855 52.4823 35.3855C53.0311 35.3855 53.2663 35.6207 53.2663 36.1695C53.2663 36.7183 53.2663 37.2671 53.2663 37.8943C53.8151 37.8943 54.4423 37.8943 54.9911 37.8943C55.5399 37.8943 55.7751 38.1295 55.7751 38.6783C55.7751 39.3839 55.7751 40.0895 55.7751 40.8735C55.7751 41.4223 55.5399 41.6575 54.9911 41.6575C54.2855 41.4223 53.7367 41.4223 53.1879 41.4223ZM51.9335 42.6767C51.9335 42.2847 51.9335 41.8927 51.9335 41.5007C51.9335 40.2463 51.9335 40.2463 53.1879 40.2463C53.5799 40.2463 53.9719 40.2463 54.3639 40.2463C54.3639 39.7759 54.3639 39.3839 54.3639 38.9919C53.9719 38.9919 53.5799 38.9919 53.1879 38.9919C51.9335 38.9919 51.8551 38.9919 51.8551 37.7375C51.8551 37.3455 51.8551 36.9535 51.8551 36.5615C51.3847 36.5615 50.9927 36.5615 50.6007 36.5615C50.6007 36.9535 50.6007 37.3455 50.6007 37.7375C50.6007 38.9919 50.6007 38.9919 49.3463 38.9919C48.9544 38.9919 48.5624 38.9919 48.1704 38.9919C48.1704 39.4623 48.1704 39.8543 48.1704 40.2463C48.5624 40.2463 48.9544 40.2463 49.2679 40.2463C50.6007 40.2463 50.6007 40.2463 50.6007 41.5791C50.6007 41.9711 50.6007 42.3631 50.6007 42.7551C51.0711 42.6767 51.4631 42.6767 51.9335 42.6767Z" fill="#9B4121"/>
</svg>