<svg xmlns="http://www.w3.org/2000/svg" width="103" height="101" viewBox="0 0 103 101" fill="none">
  <path d="M90.2392 62.2777C82.2261 83.19 58.7774 93.6469 37.8652 85.6338C16.9529 77.6208 6.49599 54.1721 14.5091 33.2598C22.5221 12.3475 44.2062 6.49588 65.1185 14.509C86.0307 22.522 98.2522 41.3655 90.2392 62.2777Z" fill="#F8B65A"/>
  <path d="M85.1217 60.3171C78.1915 78.4034 57.9115 87.4472 39.8253 80.517C21.739 73.5868 12.6952 53.3069 19.6254 35.2206C23.0819 26.1998 29.4071 20.5975 37.1019 18.0828C44.8262 15.5585 54.0136 16.1223 63.1572 19.6259C72.3008 23.1295 79.5126 28.8494 83.5722 35.8891C87.6163 42.9018 88.5782 51.2964 85.1217 60.3171Z" stroke="#9B4121" stroke-width="2.19187"/>
  <path d="M70 66.9571C69.6686 66.9571 69.2267 66.9571 68.7849 66.9571C68.7849 66.7248 68.7849 66.6087 68.7849 66.4925C68.7849 61.2656 68.7849 56.1548 68.7849 50.9278C68.7849 50.5794 68.6744 50.347 68.4535 50.1147C66.3546 48.2563 64.1453 46.3978 62.0465 44.5393C61.936 44.4232 61.936 44.4232 61.7151 44.307C61.4942 45.7009 61.7151 46.9786 62.7093 48.024C63.593 48.9532 64.5872 49.8824 65.4709 50.6955C65.6919 50.9278 65.8023 51.1601 65.8023 51.5086C65.8023 51.9732 65.8023 52.554 65.8023 53.0186C65.8023 53.4832 65.5814 53.7155 65.25 53.7155C64.3663 53.8317 63.814 54.2963 63.4826 55.1094C63.1512 56.0386 63.1512 57.084 63.2616 58.0132C63.2616 58.3617 63.3721 58.7102 63.3721 59.1748C63.0407 59.2909 62.5988 59.2909 62.157 59.4071C62.0465 58.4779 61.936 57.5486 61.936 56.6194C61.6047 56.6194 61.3837 56.6194 60.9419 56.5032C60.9419 58.2455 61.1628 59.8717 62.157 61.2656C62.4884 61.7302 62.9302 62.0786 63.4826 62.3109C63.814 62.4271 64.0349 62.6594 64.0349 63.124C64.0349 64.2856 64.0349 65.4471 64.0349 66.7248C63.593 66.7248 63.2616 66.7248 62.8198 66.7248C62.8198 65.7956 62.8198 64.7502 62.8198 63.821C62.8198 63.4725 62.7093 63.3563 62.4884 63.2402C61.2733 62.5433 60.6105 61.3817 60.2791 60.104C60.0581 59.1748 59.9477 58.1294 59.8372 57.2002C59.8372 57.084 59.8372 56.8517 59.8372 56.6194C59.1744 56.7355 58.5116 56.8517 57.8488 56.9678C56.5233 57.3163 55.3081 57.8971 54.2035 58.7102C53.9826 58.8263 53.8721 59.0586 53.8721 59.2909C53.8721 60.4525 53.8721 60.5686 52.657 60.5686C51.7733 60.5686 50.7791 60.5686 49.8953 60.5686C49.343 60.5686 49.1221 60.3363 49.1221 59.7556C49.2326 59.1748 48.9012 58.9425 48.4593 58.7102C46.5814 57.7809 44.7035 57.084 42.6047 56.8517C42.3837 56.8517 42.2733 56.8517 42.0523 56.8517C41.9419 57.5486 41.9419 58.1294 41.8314 58.7102C41.7209 59.7556 41.3895 60.6848 40.9477 61.4979C40.5058 62.3109 39.9535 62.8917 39.1802 63.3563C38.9593 63.4725 38.8488 63.5886 38.9593 63.821C38.9593 64.634 38.9593 65.4471 38.9593 66.2602C38.9593 66.3764 38.9593 66.4925 38.9593 66.7248C38.5174 66.7248 38.186 66.7248 37.7442 66.7248C37.7442 66.2602 37.7442 65.7956 37.7442 65.331C37.7442 64.634 37.7442 63.821 37.7442 63.124C37.7442 62.7756 37.8547 62.5433 38.186 62.4271C39.4012 61.9625 40.064 60.9171 40.3953 59.7556C40.7267 58.8263 40.8372 57.7809 40.8372 56.7355C40.5058 56.7355 40.1744 56.7355 39.843 56.7355C39.843 57.7809 39.843 58.594 39.7326 59.5232C39.2907 59.4071 38.9593 59.4071 38.5174 59.2909C38.6279 58.8263 38.6279 58.2455 38.7384 57.6648C38.8488 56.8517 38.7384 56.0386 38.5174 55.2255C38.186 54.4124 37.6337 53.8317 36.75 53.7155C36.4186 53.7155 36.1977 53.4832 36.1977 53.0186C36.1977 52.4378 36.1977 51.857 36.1977 51.2763C36.1977 51.044 36.3081 50.8117 36.5291 50.6955C37.4128 49.7663 38.407 48.837 39.4012 47.9078C40.2849 46.8624 40.5058 45.7009 40.2849 44.307C40.064 44.4232 39.9535 44.4232 39.843 44.5393C37.6337 46.3978 35.5349 48.2563 33.3256 50.2309C33.1047 50.347 33.1047 50.5794 33.1047 50.8117C33.1047 56.0386 33.1047 61.2656 33.1047 66.3764C33.1047 66.4925 33.1047 66.7248 33.1047 66.841C32.6628 66.841 32.3314 66.841 32 66.841C32 66.7248 32 66.6087 32 66.3764C32 60.9171 32 55.574 32 50.1147C32 49.8824 32.1105 49.6501 32.1105 49.4178C33.3256 46.7463 34.6512 44.0747 35.9767 41.4032C36.0872 41.1708 36.0872 40.9385 36.0872 40.7062C36.0872 38.7316 36.0872 36.757 36.0872 34.7823C36.0872 33.8531 36.3081 33.6208 37.1919 33.9693C37.4128 34.0854 37.6337 34.0854 37.8547 34.2016C37.8547 33.8531 37.8547 33.6208 37.8547 33.2723C37.8547 32.8077 38.0756 32.5754 38.5174 32.5754C42.7151 32.4593 46.9128 33.04 50.6686 35.1308C51.2209 35.4793 51.6628 35.4793 52.2151 35.0147C55.6395 32.8077 59.2849 31.8785 63.2616 32.4593C63.9244 32.6916 64.0349 32.9239 64.0349 33.3885C64.0349 33.6208 64.0349 33.9693 64.0349 34.2016C64.3663 34.0854 64.5872 33.9693 64.9186 33.9693C65.4709 33.737 65.8023 33.9693 65.9128 34.6662C65.9128 36.757 65.9128 38.7316 65.9128 40.8224C65.9128 41.0547 65.9128 41.287 66.0233 41.5193C67.2384 44.1909 68.564 46.8624 69.7791 49.534C69.7791 49.6501 69.8895 49.7663 70 49.8824C70 55.574 70 61.2656 70 66.9571ZM39.0698 53.2509C43.2674 53.1348 47.2442 53.8317 50.8895 55.9225C50.8895 55.8063 50.8895 55.8063 50.8895 55.8063C50.8895 49.534 50.8895 43.2616 50.8895 36.9893C50.8895 36.8731 50.7791 36.6408 50.6686 36.6408C50.1163 36.4085 49.6744 36.06 49.1221 35.8277C46.3605 34.4339 43.3779 33.8531 40.2849 33.8531C39.9535 33.8531 39.5116 33.8531 39.1802 33.8531C39.1802 37.1054 39.1802 40.3578 39.1802 43.6101C39.4012 43.2616 39.7326 43.1455 39.9535 42.9132C40.5058 42.4485 40.8372 42.5647 41.1686 43.2616C41.7209 45.0039 41.6105 46.7463 40.6163 48.3724C40.2849 48.837 39.843 49.3017 39.4012 49.6501C39.2907 49.7663 39.1802 49.8824 39.1802 49.9986C39.0698 51.044 39.0698 52.0894 39.0698 53.2509ZM62.8198 43.6101C62.8198 40.2416 62.8198 37.1054 62.8198 33.8531C59.3953 33.2723 55.1977 34.4339 52.3256 36.6408C52.2151 36.757 52.1047 36.9893 52.1047 37.1054C52.1047 43.2616 52.1047 49.3017 52.1047 55.4578C52.1047 55.574 52.1047 55.6901 52.1047 55.8063C55.4186 53.7155 58.9535 52.7863 62.7093 53.1347V53.0186C62.7093 52.3217 62.7093 51.7409 62.7093 51.044C62.8198 50.1147 62.4884 49.534 61.8256 48.9532C60.3895 47.7916 59.8372 45.1201 60.7209 43.0293C60.9419 42.5647 61.3837 42.4485 61.7151 42.797C62.157 43.0293 62.4884 43.2616 62.8198 43.6101ZM39.4012 54.4124C39.5116 54.7609 39.6221 54.9932 39.6221 55.2255C39.6221 55.574 39.843 55.6901 40.1744 55.574C43.3779 55.4578 46.3605 56.2709 49.2326 57.6648C49.8953 58.0132 50.4477 58.4779 50.4477 59.2909C51.2209 59.2909 51.9942 59.2909 52.7674 59.2909C52.7674 58.4779 52.8779 58.2455 53.5407 57.7809C55.8605 55.9225 58.5116 55.2255 61.3837 55.3417C61.6047 55.3417 61.936 55.3417 62.157 55.4578C62.2674 54.9932 62.3779 54.6448 62.5988 54.2963C62.4884 54.2963 62.3779 54.1801 62.2674 54.2963C61.1628 54.2963 60.1686 54.2963 59.064 54.4124C56.5233 54.7609 54.093 55.8063 51.9942 57.3163C51.6628 57.5486 51.4419 57.5486 51.1105 57.3163C50.5581 56.9678 49.8953 56.6194 49.343 56.3871C46.25 54.8771 42.8256 54.4124 39.4012 54.4124ZM64.5872 45.1201C64.5872 41.8678 64.5872 38.6154 64.5872 35.3631C64.0349 35.4793 64.0349 35.4793 64.0349 36.06C64.0349 38.7316 64.0349 41.4032 64.0349 44.0747C64.0349 44.5393 64.1453 44.8878 64.5872 45.1201ZM37.3023 45.1201C37.7442 44.8878 37.8547 44.5393 37.8547 44.0747C37.8547 41.4032 37.8547 38.7316 37.8547 36.06C37.8547 35.4793 37.8547 35.4793 37.3023 35.4793C37.3023 38.6154 37.3023 41.8678 37.3023 45.1201ZM36.1977 44.1909C36.0872 44.1909 36.0872 44.1909 36.1977 44.1909C35.5349 45.3524 34.9826 46.3978 34.5407 47.5593C35.093 47.2109 35.6453 46.7463 36.1977 46.2816C36.3081 46.2816 36.3081 46.0493 36.3081 46.0493C36.1977 45.3524 36.1977 44.7716 36.1977 44.1909ZM67.4593 47.5593C67.0174 46.3978 66.4651 45.2362 65.9128 44.0747C65.8023 44.7716 65.8023 45.3524 65.8023 45.9332C65.8023 46.0493 65.8023 46.1655 65.9128 46.1655C66.4651 46.7463 66.907 47.2109 67.4593 47.5593ZM37.9651 51.044C37.4128 51.5086 37.1919 51.857 37.4128 52.554C37.5233 52.7863 37.7442 52.7863 37.9651 53.0186C37.9651 52.3217 37.9651 51.7409 37.9651 51.044ZM64.0349 52.9024C64.2558 52.7863 64.4767 52.7863 64.5872 52.554C64.8081 52.0894 64.5872 51.3924 64.0349 51.044C64.0349 51.7409 64.0349 52.3217 64.0349 52.9024Z" fill="#9B4121"/>
  <path d="M51.7739 27C52.1053 27.4646 52.4367 28.0454 52.6576 28.51C52.989 28.9746 53.2099 29.3231 53.6518 29.5554C53.9832 29.7877 54.425 30.02 54.7564 30.1362C55.3088 30.4846 55.3088 30.9493 54.7564 31.2977C54.3146 31.53 53.8727 31.8785 53.3204 32.1108C53.0995 32.2269 52.989 32.4593 52.8785 32.5754C52.6576 33.04 52.3262 33.5046 52.1053 33.9693C51.7739 34.55 51.2216 34.55 51.0006 33.9693C50.5588 32.8077 49.675 31.8785 48.4599 31.2977C48.239 31.1816 48.0181 30.9493 48.0181 30.7169C48.0181 30.4846 48.239 30.2523 48.4599 30.1362C49.675 29.6716 50.5588 28.7423 51.0006 27.4646C51.1111 27.3485 51.2216 27.1162 51.332 27C51.5529 27 51.6634 27 51.7739 27ZM51.553 32.4593C51.8843 31.6462 52.4367 31.0654 53.3204 30.7169C52.4367 30.3685 51.9948 29.7877 51.6634 28.9746C51.332 29.7877 50.7797 30.3685 50.0064 30.7169C50.6692 31.0654 51.2216 31.6462 51.553 32.4593Z" fill="#9B4121"/>
  <path d="M49.4537 39.5447C49.2328 39.8932 49.0118 40.2417 48.9014 40.5901C47.6862 39.8932 46.3607 39.3124 45.0351 39.0801C43.7095 38.7317 42.3839 38.6155 40.9479 38.8478C40.9479 38.3832 40.8374 38.0347 40.8374 37.5701C43.9304 37.3378 46.8025 37.9186 49.4537 39.5447Z" fill="#9B4121"/>
  <path d="M49.4528 42.6808C49.2319 43.0293 49.1214 43.3777 48.9005 43.7262C45.2551 42.1 45.2551 42.1 40.947 41.9839C40.947 41.6354 40.8365 41.1708 40.7261 40.8223C42.4935 40.1254 47.6854 41.2869 49.4528 42.6808Z" fill="#9B4121"/>
  <path d="M53.0996 42.3323C55.8612 40.7062 58.7333 40.1254 61.8264 40.3577C61.8264 40.59 61.8264 40.8223 61.7159 40.9385C61.7159 41.1708 61.6054 41.287 61.6054 41.5193C60.2798 41.4031 58.8438 41.5193 57.5182 41.7516C56.1926 42.1 54.8671 42.5647 53.6519 43.2616C53.431 43.0293 53.3205 42.6808 53.0996 42.3323Z" fill="#9B4121"/>
  <path d="M61.715 36.9894C61.6046 37.454 61.6046 37.8024 61.4941 38.2671C58.7325 38.0347 56.0813 38.6155 53.5406 40.1255C53.3197 39.7771 53.2092 39.4286 52.9883 39.0801C55.7499 37.454 58.622 36.757 61.715 36.9894Z" fill="#9B4121"/>
</svg>