<svg xmlns="http://www.w3.org/2000/svg" width="103" height="101" viewBox="0 0 103 101" fill="none">
  <path d="M90.2392 62.2777C82.2261 83.19 58.7774 93.6469 37.8652 85.6338C16.9529 77.6208 6.49599 54.1721 14.5091 33.2598C22.5221 12.3475 44.2062 6.49588 65.1185 14.509C86.0307 22.522 98.2522 41.3655 90.2392 62.2777Z" fill="#F8B65A"/>
  <path d="M85.1217 60.3171C78.1915 78.4034 57.9115 87.4472 39.8253 80.517C21.739 73.5868 12.6952 53.3069 19.6254 35.2206C23.0819 26.1998 29.4071 20.5975 37.1019 18.0828C44.8262 15.5585 54.0136 16.1223 63.1572 19.6259C72.3008 23.1295 79.5126 28.8494 83.5722 35.8891C87.6163 42.9018 88.5782 51.2964 85.1217 60.3171Z" stroke="#9B4121" stroke-width="2.19187"/>
  <path d="M39.1984 48.7962C39.1984 49.2606 39.1984 49.609 39.1984 50.0734C39.1984 50.3057 39.1984 50.4218 39.1984 50.654C39.1984 51.5829 39.3145 51.699 40.2434 51.699H61.26H61.3761H61.4922C62.0728 51.699 62.305 51.4668 62.305 50.8862C62.305 50.654 62.305 50.3057 62.305 50.0734C62.305 49.7251 62.305 49.2606 62.305 48.9123C62.4212 46.9384 61.6084 45.4289 59.8667 44.3839C60.7956 43.5711 61.0278 42.6422 61.0278 41.9455C61.0278 41.0166 60.7956 40.0877 60.0989 39.391C59.5183 38.6943 58.5894 38.3459 57.6605 38.3459C56.7316 38.3459 55.9188 38.6943 55.2221 39.2749C53.8287 40.6682 53.8287 42.6422 55.3382 44.2677C54.4093 44.7322 53.8287 45.4289 53.3643 46.3578L52.6676 45.8933C53.7126 44.5 53.5965 43.1066 52.5515 42.0616C51.6226 41.1327 50.1131 41.0166 48.952 41.8294C48.3714 42.1777 48.0231 42.7583 47.9069 43.4549C47.6747 44.3839 47.9069 45.1967 48.6036 45.8933L48.0231 46.4739C47.9069 46.3578 47.9069 46.2417 47.7908 46.2417C47.5586 45.8933 47.3264 45.6611 47.0941 45.3128C46.8619 45.0805 46.5136 44.8483 46.2813 44.6161C46.1652 44.5 46.1652 44.5 46.0491 44.3839C47.5586 42.6422 47.5586 40.7843 46.1652 39.391C44.888 38.1137 42.6818 38.1137 41.4046 39.391C40.0112 40.7843 40.0112 42.6422 41.5207 44.3839C39.8951 45.4289 39.0823 46.8222 39.1984 48.7962ZM43.9591 45.1967C45.5847 45.3128 46.8619 46.4739 46.978 48.0995C46.978 48.564 46.978 49.1445 46.978 49.7251C46.978 49.9573 46.978 50.1895 46.978 50.3057H40.4757C40.4757 50.0734 40.4757 49.8412 40.4757 49.4929C40.4757 48.7962 40.4757 48.2156 40.5918 47.5189C40.9401 46.1256 42.4496 45.0805 43.9591 45.1967ZM45.2363 43.2227C44.888 43.5711 44.3074 43.8033 43.7268 43.8033C42.5657 43.8033 41.7529 42.8744 41.7529 41.8294C41.7529 41.2488 41.9851 40.7843 42.3335 40.436C42.6818 40.0877 43.2624 39.8554 43.7268 39.8554C44.888 39.8554 45.7008 40.7843 45.7008 41.8294C45.8169 42.2938 45.5847 42.8744 45.2363 43.2227ZM48.4875 48.4478C48.7197 47.4028 49.6486 46.7061 51.042 46.8222C52.087 46.9384 52.8998 47.7512 53.0159 48.7962C53.0159 49.1445 53.0159 49.609 53.0159 49.9573C53.0159 50.0734 53.0159 50.1895 53.0159 50.4218H48.4875C48.4875 50.1895 48.4875 50.0734 48.4875 49.9573C48.3714 49.2606 48.3714 48.7962 48.4875 48.4478ZM49.3003 44.0355C49.3003 43.6872 49.4164 43.3388 49.6486 43.1066C49.8809 42.8744 50.2292 42.7583 50.6937 42.7583C51.042 42.7583 51.3904 42.8744 51.7387 43.1066C51.9709 43.3388 52.087 43.6872 52.087 44.0355C52.087 44.3839 51.9709 44.7322 51.6226 44.9644C51.2742 45.1967 51.042 45.3128 50.6937 45.3128C49.997 45.4289 49.3003 44.7322 49.3003 44.0355ZM59.0539 43.2227C58.7055 43.5711 58.1249 43.8033 57.5444 43.8033C56.9638 43.8033 56.4994 43.5711 56.151 43.2227C55.8027 42.8744 55.5704 42.2938 55.5704 41.8294C55.5704 41.2488 55.8027 40.7843 56.151 40.3199C56.4994 39.9715 57.0799 39.7393 57.5444 39.7393C58.7055 39.7393 59.5183 40.6682 59.6344 41.7132C59.6344 42.2938 59.5183 42.8744 59.0539 43.2227ZM58.1249 45.3128C59.6344 45.545 60.9117 46.8222 60.9117 48.4478C60.9117 48.9123 60.9117 49.3767 60.9117 49.8412C60.9117 49.9573 60.9117 50.1895 60.9117 50.4218H54.4093C54.4093 50.1895 54.4093 49.8412 54.4093 49.609C54.4093 48.9123 54.4093 48.2156 54.6415 47.635C54.8738 46.0094 56.4994 45.0805 58.1249 45.3128Z" fill="#9B4121"/>
  <path d="M69.6212 46.3577C69.6212 44.9644 68.6922 43.9193 67.415 43.8032C66.0216 43.6871 64.8605 44.616 64.6283 46.0094C64.6283 46.2416 64.5122 46.59 64.5122 46.8222C64.5122 46.9383 64.5122 47.0544 64.5122 47.1705C64.396 48.5639 64.1638 49.9573 64.0477 51.4667C63.0027 51.3506 62.306 52.0473 61.7254 52.6279C61.3771 52.9762 61.0287 53.3246 60.6804 53.5568C60.2159 54.0212 59.7515 54.3696 59.287 54.834C58.1259 55.8791 56.9648 57.0402 55.3392 57.5046C55.3392 57.5046 55.2231 57.5046 55.2231 57.6208C53.2491 58.6658 52.2041 60.2914 52.2041 62.4975C52.2041 63.8909 52.2041 65.2843 52.2041 66.5615C52.2041 67.026 52.2041 67.6065 52.2041 68.071C52.2041 68.6516 52.4363 68.8838 53.0169 68.8838C54.5264 68.8838 55.9197 68.8838 57.4292 68.8838C58.9387 68.8838 60.3321 68.8838 61.8415 68.8838C62.4221 68.8838 62.6543 68.6516 62.6543 68.071C62.6543 67.2582 62.6543 66.4454 62.6543 65.7487C62.6543 64.8198 63.0027 64.1231 63.6994 63.4264C64.5122 62.7298 65.4411 61.917 66.2539 61.1042C66.7183 60.6397 67.1828 60.2914 67.6472 59.8269C68.6922 58.898 69.3889 57.7369 69.6212 56.4596C69.7373 55.8791 69.7373 55.2985 69.7373 54.7179C69.6212 52.1634 69.6212 49.2606 69.6212 46.3577ZM61.261 67.1421V67.6065H53.5975C53.5975 67.4904 53.5975 67.3743 53.5975 67.3743V66.0971C53.5975 65.052 53.5975 63.8909 53.5975 62.7298C53.5975 60.8719 54.5264 59.4786 56.152 58.898C57.5453 58.3174 58.8226 57.5046 59.8676 56.4596C60.7965 55.6468 61.7254 54.7179 62.6543 53.9051L63.351 53.3246C63.8155 52.9762 64.2799 52.8601 64.7444 53.2084C65.2088 53.4407 65.3249 54.0212 65.2088 54.4857C65.0927 54.7179 64.9766 54.9501 64.7444 55.0663C63.6994 56.1113 62.6543 57.0402 61.6093 58.0852L60.4482 59.2464L60.3321 59.3625C60.2159 59.4786 60.2159 59.4786 60.0998 59.5947C59.9837 59.7108 59.8676 59.943 59.9837 60.1753C59.9837 60.2914 60.0998 60.4075 60.2159 60.5236C60.4482 60.6397 60.6804 60.6397 60.9126 60.6397C61.0287 60.6397 61.1449 60.5236 61.261 60.4075C61.261 60.4075 61.261 60.4075 61.3771 60.2914L61.9577 59.4786C63.1188 58.3174 64.2799 57.1563 65.5572 55.9952C66.2539 55.4146 66.4861 54.7179 66.4861 54.0212C66.4861 53.3246 66.1377 52.6279 65.5572 52.0473L65.4411 51.8151C65.6733 49.9573 65.7894 48.0994 66.0216 46.2416C66.1377 45.6611 66.4861 45.1966 67.1828 45.1966C67.1828 45.1966 67.1828 45.1966 67.2989 45.1966C67.8794 45.1966 68.3439 45.6611 68.3439 46.3577V46.59C68.3439 49.6089 68.3439 52.6279 68.3439 55.6468C68.3439 56.9241 67.7633 58.0852 66.7183 59.0141C66.2539 59.4786 65.6733 59.943 65.2088 60.4075C64.396 61.1042 63.6994 61.8009 62.8866 62.4975C61.8415 63.4264 61.3771 64.4715 61.3771 65.8648C61.261 66.3293 61.261 66.6776 61.261 67.1421Z" fill="#9B4121"/>
  <path d="M46.1659 57.6208C45.8175 57.5047 45.5853 57.2725 45.237 57.1563C45.0047 57.0402 44.7725 56.9241 44.5403 56.808C44.3081 56.6919 44.0758 56.5758 43.8436 56.3435C42.4502 55.0663 40.9408 53.6729 39.4313 52.2796C38.9668 51.8151 38.2701 51.3507 37.4573 51.3507L37.3412 49.9573C37.2251 48.68 37.109 47.4028 36.9929 46.2417C36.8768 45.0805 36.2962 44.2677 35.3673 43.9194C34.5545 43.6872 33.7417 43.6872 33.1611 44.1516C32.4645 44.6161 32 45.4289 32 46.3578C32 47.7511 32 49.1445 32 50.5379C32 52.0473 32 53.6729 32 55.1824C32 57.1563 32.6967 58.7819 34.2062 60.0592C34.9028 60.6398 35.4834 61.2203 36.1801 61.8009C36.7607 62.3815 37.4573 62.962 38.0379 63.5426C38.7346 64.1232 39.0829 64.8198 39.0829 65.7488V66.0971C39.0829 66.7938 39.0829 67.4905 39.0829 68.1871C39.0829 68.7677 39.3152 68.9999 39.8957 68.9999C41.4052 68.9999 42.7986 68.9999 44.3081 68.9999C45.8175 68.9999 47.2109 68.9999 48.7204 68.9999C49.3009 68.9999 49.5332 68.7677 49.5332 68.071C49.5332 67.4905 49.5332 67.026 49.5332 66.4454C49.5332 65.1682 49.5332 63.7748 49.5332 62.4976C49.1848 60.2914 48.1398 58.6658 46.1659 57.6208ZM33.1611 46.4739C33.1611 46.3578 33.1611 46.3578 33.1611 46.2417C33.1611 45.545 33.6256 45.0805 34.2062 45.0805C34.7867 45.0805 35.2512 45.4289 35.3673 46.1255C35.5995 47.7511 35.7156 49.609 35.9479 51.699C35.9479 51.8151 35.8318 51.9312 35.8318 52.0473C35.2512 52.5118 35.019 53.2085 34.9028 53.9052C34.9028 54.6018 35.1351 55.1824 35.7156 55.763C36.8768 56.9241 38.0379 58.0853 39.199 59.1303L40.2441 60.1753C40.4763 60.4075 40.7085 60.5236 40.9408 60.5236C41.0569 60.5236 41.2891 60.4075 41.4052 60.2914C41.6374 60.0592 41.7535 59.7108 41.2891 59.2464L40.9408 58.898C39.5474 57.6208 38.2701 56.2274 36.8768 54.9502C36.5284 54.6018 36.4123 54.2535 36.4123 53.9052C36.4123 53.4407 36.6445 53.0924 37.109 52.9763C37.5735 52.744 37.9218 52.8601 38.2701 53.2085C38.9668 53.789 39.5474 54.3696 40.2441 54.9502L41.0569 55.763C41.173 55.8791 41.2891 55.9952 41.4052 56.1113C42.5663 57.2725 43.8436 58.2014 45.4692 58.7819C46.9787 59.4786 47.9076 60.7559 47.9076 62.4976C47.9076 63.6587 47.9076 64.8198 47.9076 65.8649C47.9076 66.3293 47.9076 66.7938 47.9076 67.2582C47.9076 67.3743 47.9076 67.3743 47.9076 67.4905H40.2441C40.2441 67.3743 40.2441 67.3743 40.2441 67.2582C40.2441 67.026 40.2441 66.6777 40.2441 66.4454C40.2441 66.0971 40.2441 65.8649 40.2441 65.6326C40.2441 64.3554 39.7796 63.3104 38.8507 62.4976C38.2701 62.0331 37.6896 61.4525 37.2251 60.9881C36.5284 60.2914 35.7156 59.5947 35.019 59.0142C33.8578 57.9691 33.2773 56.808 33.2773 55.1824C33.2773 53.0924 33.2773 51.1184 33.2773 49.0284L33.1611 46.4739Z" fill="#9B4121"/>
  <path d="M49.8817 39.8554C50.23 39.9716 50.4623 40.0877 50.8106 40.0877C51.1589 40.0877 51.5073 39.9716 51.8556 39.7393C54.1779 38.346 55.6874 36.9526 56.7324 35.327C57.8935 33.5853 58.1258 31.7275 57.4291 29.9858C56.7324 28.0118 54.6424 26.7346 52.7845 27.0829C51.9717 27.1991 51.2751 27.6635 50.5784 28.3602L50.4623 28.2441C49.185 27.0829 47.7916 26.7346 46.3983 27.1991C45.0049 27.6635 43.8438 29.0569 43.4954 30.5663C43.2632 31.8436 43.3793 33.1208 43.9599 34.282C45.4694 37.0687 47.9078 38.6943 49.8817 39.8554ZM44.7727 31.7275L44.8888 31.6114C44.8888 29.9858 45.9338 28.5924 47.3272 28.3602C48.2561 28.2441 49.0689 28.5924 49.8817 29.4052C50.3461 29.8697 50.4623 30.1019 50.8106 30.1019C51.0428 30.1019 51.2751 29.8697 51.7395 29.4052C52.3201 28.7085 53.0168 28.3602 53.7134 28.3602C53.7134 28.3602 53.7134 28.3602 53.8296 28.3602C54.6423 28.3602 55.339 28.8246 55.8035 29.4052C56.7324 30.6825 56.8485 32.0758 56.2679 33.5853C55.9196 34.282 55.5713 34.9787 54.9907 35.6754C54.0618 36.8365 52.7845 37.6493 51.7395 38.4621C51.2751 38.8104 50.8106 38.8104 50.4623 38.5782C48.14 37.1848 46.5144 35.7915 45.4694 33.7014C45.2371 33.237 45.121 32.7725 45.0049 32.3081C44.8888 32.0758 44.8888 31.9597 44.7727 31.7275Z" fill="#9B4121"/>
  <path d="M48.3724 34.1659C48.7207 34.5142 49.069 34.8625 49.4174 35.2109C49.6496 35.4431 49.7657 35.5592 49.998 35.5592C50.2302 35.5592 50.3463 35.4431 50.5785 35.2109C50.9269 34.8625 51.1591 34.6303 51.5074 34.282L52.4363 33.3531C52.6686 33.1208 52.9008 32.8886 53.133 32.6564C53.4814 32.308 53.4814 31.9597 53.133 31.6114C52.9008 31.263 52.4363 31.263 52.088 31.6114C51.9719 31.7275 51.9719 31.7275 51.8558 31.8436L49.7657 33.9336L49.5335 33.7014C49.3013 33.4692 49.069 33.2369 48.8368 33.0047C48.4885 32.6564 48.1401 32.6564 47.7918 32.8886C47.6757 33.0047 47.5596 33.2369 47.5596 33.3531C47.5596 33.5853 47.6757 33.7014 47.7918 33.9336L48.3724 34.1659Z" fill="#9B4121"/>
</svg>