<svg xmlns="http://www.w3.org/2000/svg" width="27" height="27" viewBox="0 0 27 27" fill="none">
  <path d="M26.698 26.4354C26.5491 26.6504 26.3506 26.7 26.0942 26.7C17.5995 26.6918 9.10476 26.6918 0.61005 26.6918C0.13031 26.6918 0.00623965 26.576 0.00623965 26.0962C0.00623965 25.8646 -0.00203173 25.6248 0.00623965 25.3932C0.0310538 24.7397 0.552151 24.2186 1.21386 24.1938C1.31312 24.1938 1.4041 24.1938 1.50336 24.1938C9.36944 24.1938 17.2438 24.2021 25.1099 24.1855C25.8874 24.1855 26.4333 24.4254 26.698 25.1864C26.698 25.6 26.698 26.0218 26.698 26.4354ZM25.846 25.8564C25.9039 25.1368 25.8129 25.0292 25.1264 25.0292C17.2603 25.0292 9.38598 25.0292 1.5199 25.0292C1.42065 25.0292 1.32966 25.021 1.2304 25.0292C0.998805 25.054 0.866463 25.1864 0.841649 25.4097C0.825106 25.5503 0.841649 25.6992 0.841649 25.8481C9.18747 25.8564 17.5085 25.8564 25.846 25.8564Z" fill="white"/>
  <path d="M26.6979 10.1738C26.5076 10.4798 26.1851 10.4385 25.8625 10.4385C25.8625 10.5543 25.8625 10.6618 25.8625 10.761C25.8625 14.7313 25.8625 18.7016 25.8625 22.6636C25.8625 22.7297 25.8625 22.8042 25.8625 22.8703C25.8542 23.1681 25.6888 23.3583 25.4406 23.3583C25.2008 23.3501 25.0436 23.1681 25.0353 22.8869C25.0353 22.8207 25.0353 22.7463 25.0353 22.6801C25.0353 18.7098 25.0353 14.7396 25.0353 10.7776C25.0353 10.6783 25.0353 10.5708 25.0353 10.4385C24.9113 10.4385 24.812 10.4385 24.7127 10.4385C23.8773 10.4385 23.0419 10.4385 22.2148 10.4385C21.8922 10.4385 21.702 10.273 21.702 10.0083C21.7102 9.75193 21.8922 9.60305 22.2065 9.60305C23.3232 9.60305 24.4481 9.60305 25.5647 9.60305C25.6557 9.60305 25.7549 9.60305 25.8542 9.60305C25.8542 9.32182 25.8542 9.06541 25.8542 8.76764C25.7632 8.76764 25.6722 8.76764 25.5812 8.76764C24.4646 8.76764 23.3397 8.76764 22.2231 8.76764C21.9832 8.76764 21.793 8.70147 21.7185 8.45332C21.6358 8.1721 21.8508 7.93223 22.1982 7.93223C23.2653 7.93223 24.3323 7.93223 25.3993 7.93223C25.6309 7.93223 25.8707 7.94877 26.1023 7.93223C26.3588 7.91569 26.5573 7.98186 26.7061 8.19691C26.6979 8.85035 26.6979 9.51206 26.6979 10.1738Z" fill="white"/>
  <path d="M19.3446 0.00827138C19.5679 0.405298 19.8161 0.785781 20.0063 1.19108C20.089 1.36478 19.965 1.54675 19.7747 1.62946C19.5679 1.72045 19.3942 1.66255 19.2702 1.48885C19.1792 1.35651 19.0965 1.20762 19.0386 1.05047C18.9724 0.868495 18.8649 0.835409 18.6829 0.835409C16.5158 0.843681 14.3404 0.835409 12.1733 0.835409C10.792 0.835409 9.41069 0.843681 8.02937 0.827138C7.82258 0.827138 7.70678 0.885037 7.64061 1.07528C7.59098 1.22416 7.51654 1.36478 7.42556 1.48885C7.30148 1.66255 7.11951 1.72045 6.921 1.62119C6.73076 1.53848 6.60669 1.35651 6.6894 1.18281C6.87964 0.77751 7.12779 0.388755 7.35111 0C11.3462 0.00827138 15.3495 0.00827138 19.3446 0.00827138Z" fill="white"/>
  <path d="M20.0229 5.0206C15.5563 5.0206 11.1311 5.0206 6.67286 5.0206C6.67286 5.1364 6.67286 5.23566 6.67286 5.33491C6.67286 11.1249 6.67286 16.9231 6.67286 22.7131C6.67286 23.1432 6.54879 23.3417 6.26756 23.35C5.97806 23.3582 5.83745 23.1515 5.83745 22.7131C5.83745 16.9397 5.83745 11.158 5.83745 5.38454C5.83745 5.26874 5.83745 5.16122 5.83745 5.00406C5.58931 5.00406 5.34944 5.00406 5.10957 5.00406C4.72908 5.00406 4.58847 4.85518 4.5802 4.49123C4.5802 4.00322 4.5802 3.51521 4.5802 3.03547C4.5802 2.64672 4.72909 2.5061 5.11784 2.5061C8.567 2.5061 12.0162 2.5061 15.4653 2.5061C17.4836 2.5061 19.4935 2.5061 21.5117 2.5061C21.9666 2.5061 22.0907 2.63017 22.0907 3.10164C22.0907 3.56484 22.0907 4.01977 22.0907 4.48296C22.0907 4.87172 21.9418 5.01233 21.5531 5.01233C21.3297 5.01233 21.1064 5.01233 20.8417 5.01233C20.8417 5.1364 20.8417 5.24393 20.8417 5.35146C20.8417 11.1332 20.8417 16.9231 20.8417 22.7048C20.8417 22.8041 20.85 22.8951 20.8335 22.9943C20.7921 23.2176 20.6515 23.3582 20.4199 23.3582C20.1883 23.3582 20.0477 23.2259 20.0063 22.9943C19.9898 22.9033 19.998 22.8041 19.998 22.7048C19.998 16.9231 19.998 11.1332 19.998 5.35146C20.0229 5.2522 20.0229 5.14467 20.0229 5.0206ZM21.2636 3.36633C15.9699 3.36633 10.7093 3.36633 5.44042 3.36633C5.44042 3.63928 5.44042 3.89569 5.44042 4.16865C10.7176 4.16865 15.9864 4.16865 21.2636 4.16865C21.2636 3.89569 21.2636 3.63928 21.2636 3.36633Z" fill="white"/>
  <path d="M12.9343 17.527C12.223 17.527 11.5613 17.527 10.85 17.527C10.85 17.618 10.85 17.709 10.85 17.8C10.85 19.446 10.85 21.1002 10.85 22.7462C10.85 22.829 10.8582 22.9199 10.8417 23.0027C10.7921 23.2094 10.6597 23.3418 10.4447 23.3418C10.2131 23.3418 10.0724 23.2094 10.0311 22.9861C10.0145 22.9199 10.0228 22.8455 10.0228 22.7793C10.0228 20.9348 10.0228 19.0986 10.0228 17.254C10.0228 16.7991 10.1469 16.675 10.6101 16.675C12.4463 16.675 14.2743 16.675 16.1106 16.675C16.5738 16.675 16.6978 16.7991 16.6978 17.2623C16.6978 19.0986 16.6978 20.9265 16.6978 22.7628C16.6978 22.8372 16.7061 22.9199 16.6896 22.9944C16.6565 23.2012 16.4662 23.3583 16.2677 23.3418C16.0527 23.3252 15.912 23.2012 15.8707 22.9944C15.8541 22.9117 15.8624 22.8207 15.8624 22.738C15.8624 21.0093 15.8624 19.2805 15.8624 17.5353C15.1759 17.5353 14.4894 17.5353 13.778 17.5353C13.778 17.6263 13.778 17.7172 13.778 17.8082C13.778 19.4542 13.778 21.1085 13.778 22.7545C13.778 22.8372 13.7863 22.9282 13.7698 23.0109C13.7201 23.2177 13.5795 23.3418 13.3645 23.3418C13.1494 23.3418 13.0088 23.2094 12.9592 23.0027C12.9426 22.9199 12.9509 22.829 12.9509 22.7462C12.9509 21.1085 12.9509 19.4625 12.9509 17.8248C12.9343 17.7421 12.9343 17.6428 12.9343 17.527Z" fill="white"/>
  <path d="M1.66875 10.4302C1.66875 10.5708 1.66875 10.6783 1.66875 10.7776C1.66875 14.7396 1.66875 18.7016 1.66875 22.6553C1.66875 22.7215 1.66875 22.7959 1.66875 22.8621C1.66048 23.1598 1.49505 23.3501 1.24691 23.3501C1.00704 23.3418 0.849884 23.1598 0.841613 22.8786C0.841613 22.8124 0.841613 22.738 0.841613 22.6718C0.841613 18.7016 0.841613 14.7313 0.841613 10.761C0.841613 10.6618 0.841613 10.5543 0.841613 10.4219C0.692728 10.4219 0.568657 10.4302 0.436315 10.4219C0.171631 10.4054 0.0144749 10.2565 0.00620354 9.9918C-0.00206784 9.45416 -0.00206784 8.90825 0.00620354 8.36234C0.00620354 8.09766 0.171631 7.93223 0.436315 7.93223C1.81764 7.92396 3.19896 7.92396 4.58028 7.93223C4.84496 7.93223 5.01866 8.12247 5.01039 8.35407C5.00212 8.59394 4.82015 8.75937 4.53065 8.75937C3.42228 8.75937 2.30565 8.75937 1.19728 8.75937C1.08975 8.75937 0.990498 8.75937 0.866427 8.75937C0.866427 9.03232 0.866427 9.29701 0.866427 9.59478C0.949141 9.59478 1.04013 9.59478 1.13111 9.59478C2.26429 9.59478 3.3892 9.59478 4.52238 9.59478C4.8615 9.59478 5.08483 9.83465 5.00212 10.1159C4.92767 10.3475 4.75398 10.4302 4.52238 10.4302C3.6787 10.4302 2.83502 10.4302 1.99133 10.4302C1.88381 10.4302 1.79282 10.4302 1.66875 10.4302Z" fill="white"/>
  <path d="M10.8418 7.94883C10.8418 8.46166 10.8418 8.97448 10.8418 9.48731C10.8418 9.86779 10.7012 10.0167 10.329 10.0167C9.55972 10.0167 8.78222 10.0167 8.01298 10.0167C7.65731 10.0167 7.50842 9.86779 7.50842 9.50385C7.50842 8.45339 7.50842 7.40292 7.50842 6.35245C7.50842 5.99679 7.65731 5.8479 8.02125 5.8479C8.79049 5.8479 9.568 5.8479 10.3372 5.8479C10.6929 5.8479 10.8418 5.99679 10.8418 6.36073C10.8501 6.89009 10.8418 7.41946 10.8418 7.94883ZM9.98984 9.173C9.98984 8.33759 9.98984 7.51872 9.98984 6.69985C9.42738 6.69985 8.88974 6.69985 8.3521 6.69985C8.3521 7.53526 8.3521 8.34586 8.3521 9.173C8.90629 9.173 9.43565 9.173 9.98984 9.173Z" fill="white"/>
  <path d="M11.6771 7.90747C11.6771 7.38638 11.6771 6.86528 11.6771 6.34418C11.6771 6.00506 11.826 5.8479 12.1734 5.8479C12.9592 5.8479 13.7367 5.8479 14.5225 5.8479C14.8616 5.8479 15.0188 6.00506 15.0188 6.34418C15.0188 7.40292 15.0188 8.46166 15.0188 9.52039C15.0188 9.85952 14.8616 10.0167 14.5225 10.0167C13.7367 10.0167 12.9592 10.0167 12.1734 10.0167C11.8343 10.0167 11.6771 9.85952 11.6771 9.52039C11.6771 8.98275 11.6771 8.44511 11.6771 7.90747ZM12.5291 6.69158C12.5291 7.53526 12.5291 8.34586 12.5291 9.16472C13.0915 9.16472 13.6292 9.16472 14.1668 9.16472C14.1668 8.32931 14.1668 7.51872 14.1668 6.69158C13.6209 6.69158 13.0833 6.69158 12.5291 6.69158Z" fill="white"/>
  <path d="M19.1875 7.9571C19.1875 8.46993 19.1875 8.98275 19.1875 9.49558C19.1875 9.86779 19.0386 10.0167 18.6664 10.0167C17.9054 10.0167 17.1362 10.0167 16.3752 10.0167C16.003 10.0167 15.8541 9.86779 15.8541 9.49558C15.8541 8.45338 15.8541 7.41119 15.8541 6.369C15.8541 5.99679 16.003 5.8479 16.3752 5.8479C17.1362 5.8479 17.9054 5.8479 18.6664 5.8479C19.0386 5.8479 19.1875 5.99679 19.1875 6.369C19.1875 6.89837 19.1875 7.42773 19.1875 7.9571ZM18.3355 9.173C18.3355 8.34586 18.3355 7.52699 18.3355 6.69985C17.7814 6.69985 17.2354 6.69985 16.6978 6.69985C16.6978 7.53526 16.6978 8.35413 16.6978 9.173C17.2603 9.173 17.7896 9.173 18.3355 9.173Z" fill="white"/>
  <path d="M10.8418 12.9199C10.8418 13.4492 10.8418 13.9786 10.8418 14.508C10.8418 14.8636 10.6929 15.0125 10.329 15.0125C9.55972 15.0125 8.78221 15.0125 8.01298 15.0125C7.65731 15.0125 7.50842 14.8636 7.50842 14.4997C7.50842 13.4492 7.50842 12.3988 7.50842 11.3483C7.50842 10.9926 7.65731 10.8438 8.01298 10.8438C8.78221 10.8438 9.55972 10.8438 10.329 10.8438C10.6846 10.8438 10.8335 10.9926 10.8335 11.3483C10.8501 11.8777 10.8418 12.3988 10.8418 12.9199ZM9.99811 14.1771C9.99811 13.3334 9.99811 12.5146 9.99811 11.6957C9.44393 11.6957 8.89801 11.6957 8.36865 11.6957C8.36865 12.5311 8.36865 13.35 8.36865 14.1771C8.91456 14.1771 9.44393 14.1771 9.99811 14.1771Z" fill="white"/>
  <path d="M11.6771 12.9364C11.6771 12.4071 11.6771 11.8777 11.6771 11.3483C11.6771 11.0092 11.826 10.8521 12.1734 10.8521C12.9592 10.8521 13.7367 10.8521 14.5225 10.8521C14.8616 10.8521 15.0188 11.0092 15.0188 11.3483C15.0188 12.4071 15.0188 13.4658 15.0188 14.5245C15.0188 14.8637 14.8616 15.0208 14.5225 15.0208C13.7367 15.0208 12.9592 15.0208 12.1734 15.0208C11.8343 15.0208 11.6771 14.8637 11.6771 14.5245C11.6771 13.9952 11.6771 13.4658 11.6771 12.9364ZM12.5291 11.6957C12.5291 12.5311 12.5291 13.35 12.5291 14.1689C13.0915 14.1689 13.6292 14.1689 14.1668 14.1689C14.1668 13.3335 14.1668 12.5229 14.1668 11.6957C13.6209 11.6957 13.0833 11.6957 12.5291 11.6957Z" fill="white"/>
  <path d="M15.8541 12.9364C15.8541 12.4071 15.8541 11.8777 15.8541 11.3483C15.8541 11.0092 16.0113 10.8521 16.3504 10.8521C17.1362 10.8521 17.9137 10.8521 18.6995 10.8521C19.0386 10.8521 19.1958 11.0092 19.1958 11.3483C19.1958 12.4071 19.1958 13.4658 19.1958 14.5245C19.1958 14.8637 19.0386 15.0208 18.6995 15.0208C17.9137 15.0208 17.1362 15.0208 16.3504 15.0208C16.0113 15.0208 15.8624 14.8637 15.8541 14.5245C15.8459 13.9952 15.8541 13.4658 15.8541 12.9364ZM18.3356 14.1771C18.3356 13.3335 18.3356 12.5146 18.3356 11.6957C17.7814 11.6957 17.2437 11.6957 16.6978 11.6957C16.6978 12.5229 16.6978 13.3417 16.6978 14.1771C17.252 14.1771 17.7814 14.1771 18.3356 14.1771Z" fill="white"/>
  <path d="M3.34772 12.9364C3.34772 13.2259 3.34772 13.4823 3.34772 13.7718C3.76129 13.7718 4.16658 13.747 4.57188 13.78C4.71249 13.7966 4.88619 13.9207 4.96064 14.0447C5.01853 14.1357 4.96891 14.3342 4.89446 14.4418C4.83656 14.5327 4.67941 14.5906 4.56361 14.5906C4.02597 14.6072 3.48833 14.5989 2.95069 14.5989C2.67773 14.5989 2.51231 14.4335 2.51231 14.1605C2.50404 13.6229 2.50404 13.0853 2.51231 12.5476C2.51231 12.2664 2.67773 12.1092 2.95069 12.1092C3.48833 12.101 4.02597 12.101 4.56361 12.1092C4.82829 12.1092 5.01026 12.2829 5.01026 12.5145C5.01026 12.7627 4.82829 12.9281 4.54707 12.9364C4.15004 12.9364 3.76129 12.9364 3.34772 12.9364Z" fill="white"/>
  <path d="M23.348 13.7719C23.348 13.4824 23.348 13.226 23.348 12.9365C22.9675 12.9365 22.5953 12.9365 22.2231 12.9365C21.884 12.9365 21.6855 12.7711 21.6937 12.5064C21.702 12.25 21.8922 12.1011 22.2231 12.1011C22.7111 12.1011 23.1908 12.1011 23.6789 12.1011C24.0345 12.1011 24.1917 12.25 24.1917 12.6056C24.1917 13.1102 24.1917 13.6147 24.1917 14.111C24.1917 14.4501 24.0345 14.599 23.6954 14.599C23.1909 14.599 22.6863 14.599 22.19 14.599C21.884 14.599 21.702 14.4336 21.702 14.1855C21.702 13.929 21.884 13.7719 22.1983 13.7719C22.5622 13.7636 22.9427 13.7719 23.348 13.7719Z" fill="white"/>
  <path d="M3.33954 17.1052C3.33954 17.3947 3.33954 17.6511 3.33954 17.9406C3.66212 17.9406 3.97643 17.9406 4.29075 17.9406C4.39827 17.9406 4.49753 17.9323 4.60506 17.9406C4.83666 17.9654 4.99381 18.1308 5.00208 18.3459C5.00208 18.5609 4.84493 18.7594 4.6216 18.7594C4.05088 18.776 3.48015 18.776 2.90115 18.7594C2.66128 18.7512 2.5124 18.6023 2.50413 18.3541C2.49586 17.7917 2.49586 17.2292 2.50413 16.6668C2.5124 16.4269 2.67783 16.2698 2.92597 16.2698C3.47188 16.2615 4.01779 16.2615 4.5637 16.2698C4.82839 16.2698 5.00208 16.46 4.99381 16.6916C4.98554 16.9232 4.81184 17.0969 4.54716 17.0969C4.1584 17.1134 3.76138 17.1052 3.33954 17.1052Z" fill="white"/>
  <path d="M23.3398 17.9407C23.348 17.8828 23.3563 17.8497 23.3563 17.8167C23.3563 17.5933 23.3563 17.37 23.3563 17.1053C23.0254 17.1053 22.7111 17.1053 22.3968 17.1053C22.2976 17.1053 22.2066 17.1136 22.1073 17.1053C21.8592 17.0888 21.6938 16.9151 21.6938 16.6917C21.6938 16.4684 21.8592 16.2782 22.1073 16.2782C22.6615 16.2699 23.2157 16.2699 23.7699 16.2782C24.0263 16.2782 24.1834 16.4436 24.1917 16.7083C24.2 17.2542 24.2 17.8001 24.1917 18.346C24.1917 18.6024 24.0263 18.7679 23.7616 18.7679C23.2157 18.7761 22.6698 18.7761 22.1239 18.7679C21.8675 18.7679 21.6855 18.5776 21.6938 18.3378C21.702 18.1144 21.8675 17.9407 22.1239 17.9407C22.5209 17.9325 22.9179 17.9407 23.3398 17.9407Z" fill="white"/>
  <path d="M25.8461 25.8564C17.5085 25.8564 9.18751 25.8564 0.841689 25.8564C0.841689 25.7075 0.833417 25.5586 0.841689 25.418C0.866503 25.1864 0.998845 25.0623 1.23044 25.0375C1.32143 25.0292 1.42069 25.0375 1.51994 25.0375C9.38602 25.0375 17.2604 25.0375 25.1265 25.0375C25.813 25.0292 25.904 25.1367 25.8461 25.8564Z" fill="white"/>
  <path d="M21.2636 3.36646C21.2636 3.63941 21.2636 3.89582 21.2636 4.16878C15.9864 4.16878 10.7176 4.16878 5.44043 4.16878C5.44043 3.90409 5.44043 3.64768 5.44043 3.36646C10.701 3.36646 15.9699 3.36646 21.2636 3.36646Z" fill="white"/>
  <path d="M9.98978 9.17285C9.4356 9.17285 8.89796 9.17285 8.35205 9.17285C8.35205 8.34571 8.35205 7.53512 8.35205 6.69971C8.88969 6.69971 9.42733 6.69971 9.98978 6.69971C9.98978 7.5103 9.98978 8.32917 9.98978 9.17285Z" fill="white"/>
  <path d="M12.5291 6.69153C13.0832 6.69153 13.6126 6.69153 14.1668 6.69153C14.1668 7.51867 14.1668 8.32926 14.1668 9.16467C13.6291 9.16467 13.0915 9.16467 12.5291 9.16467C12.5291 8.35407 12.5291 7.53521 12.5291 6.69153Z" fill="white"/>
  <path d="M18.3356 9.17285C17.7897 9.17285 17.2521 9.17285 16.6979 9.17285C16.6979 8.35398 16.6979 7.53512 16.6979 6.69971C17.2355 6.69971 17.7732 6.69971 18.3356 6.69971C18.3356 7.51857 18.3356 8.33744 18.3356 9.17285Z" fill="white"/>
  <path d="M9.99799 14.1771C9.44381 14.1771 8.91444 14.1771 8.36853 14.1771C8.36853 13.3582 8.36853 12.5394 8.36853 11.6957C8.8979 11.6957 9.44381 11.6957 9.99799 11.6957C9.99799 12.5228 9.99799 13.3417 9.99799 14.1771Z" fill="white"/>
  <path d="M12.5291 11.6957C13.0832 11.6957 13.6209 11.6957 14.1668 11.6957C14.1668 12.5228 14.1668 13.3334 14.1668 14.1688C13.6291 14.1688 13.0915 14.1688 12.5291 14.1688C12.5291 13.35 12.5291 12.5394 12.5291 11.6957Z" fill="white"/>
  <path d="M18.3356 14.1771C17.7814 14.1771 17.2521 14.1771 16.6979 14.1771C16.6979 13.35 16.6979 12.5311 16.6979 11.6957C17.2438 11.6957 17.7814 11.6957 18.3356 11.6957C18.3356 12.5145 18.3356 13.3334 18.3356 14.1771Z" fill="white"/>
</svg>