<svg xmlns="http://www.w3.org/2000/svg" width="9" height="9" viewBox="0 0 9 9" fill="none">
  <g clip-path="url(#clip0_642_4835)">
    <path d="M1.29119 4.77295H1.90465V5.42445H2.51811V6.07594H3.13157V6.72743H3.74503V7.37893H4.35848V8.03042H4.97194V7.37893H5.5854V6.72743H6.19886V6.07594H6.81232V5.42445H7.42578V4.77295H8.03923V4.12146H8.65269V1.51599H8.03923V0.864494H7.42578V0.213501H5.58587V0.864994H4.97241V1.51649H4.35896V0.864994H3.7455V0.213501H1.90418V0.864994H1.29072V1.51649H0.677734V4.12196H1.29119V4.77345V4.77295ZM6.19745 0.864994H6.8109V1.51649H7.42436V2.16798H6.8109V1.51649H6.19745V0.864994Z" fill="#FFFAF3"/>
  </g>
  <defs>
    <clipPath id="clip0_642_4835">
      <rect width="7.97307" height="7.81592" fill="white" transform="translate(0.679199 0.213623)"/>
    </clipPath>
  </defs>
</svg>