<svg xmlns="http://www.w3.org/2000/svg" width="32" height="8" viewBox="0 0 32 8" fill="none">
  <path d="M5.41318 3.93589H5.36404L3.8814 0.389085C3.84044 0.277958 3.74215 0.213135 3.63566 0.213135H0.866993C0.719549 0.213135 0.59668 0.352044 0.59668 0.518734V7.17709C0.59668 7.34378 0.719549 7.48269 0.866993 7.48269H2.85749C3.00493 7.48269 3.1278 7.34378 3.1278 7.17709V3.73216H3.17695L4.76607 7.316C4.81522 7.41787 4.90532 7.48269 5.00361 7.48269H7.67399C7.82144 7.48269 7.9443 7.34378 7.9443 7.17709V0.518734C7.9443 0.352044 7.82144 0.213135 7.67399 0.213135H5.68349C5.53605 0.213135 5.41318 0.352044 5.41318 0.518734V3.93589Z" fill="#FFFAF3"/>
  <path d="M15.071 4.29673C15.1611 4.29673 15.2266 4.21339 15.2266 4.12078V3.58367C15.2266 3.4818 15.1529 3.40772 15.071 3.40772H11.5159V2.37979H15.2348C15.3822 2.37979 15.5051 2.24088 15.5051 2.07419V0.527674C15.5051 0.360984 15.3822 0.222076 15.2348 0.222076H9.04216C8.89472 0.222076 8.77185 0.360984 8.77185 0.527674V7.19529C8.77185 7.36198 8.89472 7.49163 9.03397 7.49163H15.2676C15.415 7.49163 15.5379 7.35272 15.5379 7.18603V5.73212C15.5379 5.56543 15.415 5.42652 15.2676 5.42652H11.5077V4.29673H15.071Z" fill="#FFFAF3"/>
  <path d="M23.7289 3.09318C23.7289 0.565037 22.451 0.213135 20.7554 0.213135H16.6516C16.5041 0.213135 16.3813 0.352044 16.3813 0.518734V7.17709C16.3813 7.34378 16.5041 7.48269 16.6516 7.48269H18.855C19.0025 7.48269 19.1254 7.34378 19.1254 7.17709V5.88987H19.5923C19.7397 6.68628 20.3049 7.30674 21.0257 7.44565C21.1077 7.46417 21.1978 7.48269 21.2961 7.48269H23.4668C23.6142 7.48269 23.7371 7.34378 23.7371 7.17709V5.88987C23.7371 5.72318 23.6142 5.58427 23.4668 5.58427H22.5821C23.3193 5.24163 23.7289 4.52857 23.7289 3.09318ZM19.1172 2.35233H20.3541C20.6571 2.35233 20.9111 2.62089 20.9356 2.96353C20.993 3.75994 20.7718 4.02849 20.1657 4.04701H19.1172V2.35233Z" fill="#FFFAF3"/>
  <path d="M31.781 3.80624C31.781 1.16697 30.6506 0.213135 28.4636 0.213135H24.8348C24.6874 0.213135 24.5645 0.352044 24.5645 0.518734V7.14005C24.5645 7.33452 24.7037 7.48269 24.8676 7.48269H28.4636C30.6588 7.48269 31.781 6.52885 31.781 3.88959C31.781 3.87106 31.781 3.8618 31.781 3.85254C31.781 3.83402 31.781 3.82476 31.781 3.80624ZM27.9967 5.25089H27.2594V2.44494H27.9967C28.8158 2.44494 29.0288 2.95427 29.037 3.84328C29.0288 4.75082 28.8158 5.25089 27.9967 5.25089Z" fill="#FFFAF3"/>
  <path d="M23.7289 3.09318C23.7289 0.565037 22.451 0.213135 20.7554 0.213135H16.6516C16.5041 0.213135 16.3813 0.352044 16.3813 0.518734V7.17709C16.3813 7.34378 16.5041 7.48269 16.6516 7.48269H18.855C19.0025 7.48269 19.1254 7.34378 19.1254 7.17709V5.88987H19.5923C19.7397 6.68628 20.3049 7.30674 21.0257 7.44565C21.1077 7.46417 21.1978 7.48269 21.2961 7.48269H23.4668C23.6142 7.48269 23.7371 7.34378 23.7371 7.17709V5.88987C23.7371 5.72318 23.6142 5.58427 23.4668 5.58427H22.5821C23.3193 5.24163 23.7289 4.52857 23.7289 3.09318ZM19.1172 2.35233H20.3541C20.6571 2.35233 20.9111 2.62089 20.9356 2.96353C20.993 3.75994 20.7718 4.02849 20.1657 4.04701H19.1172V2.35233Z" fill="#FFFAF3"/>
</svg>