<svg xmlns="http://www.w3.org/2000/svg" width="103" height="44" viewBox="0 0 103 44" fill="none">
  <path d="M23.2334 22.8788H22.7321V23.3801V31.4013H19.7241V23.3801V22.8788H19.2228H16.7162V19.8708H19.2228H19.7241V19.3695V16.562C19.7241 15.1454 20.1701 14.107 20.8782 13.4219C21.5894 12.7339 22.6182 12.3509 23.8781 12.3509C24.812 12.3509 25.7062 12.4017 26.2414 12.4447V14.8575H25.2387C24.1752 14.8575 23.4588 15.1143 23.0683 15.6942C22.8841 15.9677 22.8048 16.2698 22.7678 16.5493C22.7321 16.8187 22.7321 17.1012 22.7321 17.3484L22.7321 17.3641V19.3695V19.8708H23.2334H26.1006L25.3486 22.8788H23.2334Z" fill="white" stroke="white" stroke-width="1.00265"/>
  <circle cx="21.8761" cy="21.8761" r="21.4204" stroke="white" stroke-width="0.911504"/>
  <path d="M81.3897 12.761C82.3476 12.761 83.3302 12.7857 84.2825 12.826L85.4074 12.8798L86.4841 12.9437L87.4925 13.012L88.4134 13.0837C89.413 13.1598 90.3537 13.5861 91.0698 14.2877C91.7859 14.9892 92.2315 15.921 92.3281 16.9188L92.3729 17.395L92.4569 18.4145C92.5353 19.4711 92.5936 20.6228 92.5936 21.7242C92.5936 22.8255 92.5353 23.9773 92.4569 25.0338L92.3729 26.0534L92.3281 26.5295C92.2315 27.5275 91.7857 28.4594 91.0694 29.161C90.3531 29.8626 89.4121 30.2888 88.4123 30.3646L87.4936 30.4352L86.4852 30.5047L85.4074 30.5685L84.2825 30.6223C83.3188 30.6641 82.3543 30.6857 81.3897 30.6873C80.4251 30.6857 79.4606 30.6641 78.4969 30.6223L77.372 30.5685L76.2953 30.5047L75.2869 30.4352L74.366 30.3646C73.3664 30.2886 72.4257 29.8622 71.7096 29.1607C70.9935 28.4591 70.5479 27.5274 70.4513 26.5295L70.4065 26.0534L70.3225 25.0338C70.2371 23.9326 70.1915 22.8287 70.1858 21.7242C70.1858 20.6228 70.2441 19.4711 70.3225 18.4145L70.4065 17.395L70.4513 16.9188C70.5479 15.9212 70.9933 14.9896 71.7091 14.288C72.425 13.5865 73.3655 13.16 74.3648 13.0837L75.2847 13.012L76.293 12.9437L77.3709 12.8798L78.4957 12.826C79.4598 12.7843 80.4247 12.7626 81.3897 12.761ZM81.3897 15.0018C80.4654 15.0018 79.5142 15.0265 78.5887 15.0646L77.493 15.1172L76.4409 15.1789L75.4527 15.2461L74.5475 15.3167C74.0715 15.35 73.6228 15.551 73.2811 15.8839C72.9393 16.2168 72.7267 16.6601 72.6809 17.1351C72.5498 18.4896 72.4266 20.1758 72.4266 21.7242C72.4266 23.2726 72.5498 24.9587 72.6809 26.3133C72.7761 27.2903 73.5514 28.0499 74.5475 28.1317L75.4527 28.2012L76.4409 28.2684L77.493 28.3311L78.5887 28.3838C79.5142 28.4219 80.4654 28.4465 81.3897 28.4465C82.314 28.4465 83.2652 28.4219 84.1907 28.3838L85.2864 28.3311L86.3385 28.2695L87.3266 28.2023L88.2319 28.1317C88.7079 28.0984 89.1566 27.8974 89.4983 27.5645C89.8401 27.2315 90.0527 26.7882 90.0985 26.3133C90.2296 24.9587 90.3528 23.2726 90.3528 21.7242C90.3528 20.1758 90.2296 18.4896 90.0985 17.1351C90.0527 16.6601 89.8401 16.2168 89.4983 15.8839C89.1566 15.551 88.7079 15.35 88.2319 15.3167L87.3266 15.2472L86.3385 15.18L85.2864 15.1172L84.1907 15.0646C83.2575 15.0245 82.3237 15.0036 81.3897 15.0018ZM79.1489 19.0072C79.1488 18.8977 79.1755 18.7899 79.2266 18.693C79.2777 18.5962 79.3517 18.5133 79.4422 18.4516C79.5326 18.3898 79.6368 18.3511 79.7456 18.3388C79.8544 18.3265 79.9646 18.341 80.0665 18.3809L80.1573 18.4257L84.8629 21.1416C84.9566 21.1956 85.0359 21.2715 85.094 21.3628C85.1521 21.454 85.1873 21.558 85.1967 21.6657C85.206 21.7735 85.1892 21.882 85.1477 21.9819C85.1062 22.0818 85.0411 22.1702 84.9581 22.2396L84.8629 22.3068L80.1573 25.0237C80.0624 25.0786 79.9556 25.1095 79.8461 25.1137C79.7366 25.1179 79.6278 25.0953 79.529 25.0478C79.4303 25.0003 79.3446 24.9294 79.2795 24.8412C79.2145 24.7531 79.1719 24.6503 79.1556 24.542L79.1489 24.4411V19.0072Z" fill="white"/>
  <circle cx="81.1239" cy="21.8761" r="21.4204" stroke="white" stroke-width="0.911504"/>
</svg>