<svg xmlns="http://www.w3.org/2000/svg" width="20" height="20" viewBox="0 0 20 20" fill="none">
  <path d="M0 10.0178C0 8.20604 0.452931 6.52753 1.34991 4.99112C2.24689 3.45471 3.46359 2.23801 5 1.34103C6.53641 0.44405 8.20604 0 10.0089 0C11.3588 0 12.6554 0.26643 13.8899 0.790408C15.1243 1.31439 16.1812 2.03375 17.0782 2.92185C17.9751 3.80995 18.6856 4.87567 19.2096 6.11901C19.7336 7.36234 20 8.65009 20 10.0178C20 11.3677 19.7336 12.6643 19.2096 13.8988C18.6856 15.1332 17.9663 16.1989 17.0782 17.087C16.1901 17.9751 15.1243 18.6856 13.8899 19.2096C12.6554 19.7336 11.3677 20 10.0089 20C8.65009 20 7.34458 19.7336 6.11012 19.2096C4.87567 18.6856 3.80995 17.9663 2.91297 17.0782C2.01599 16.1901 1.31439 15.1243 0.781527 13.8988C0.248668 12.6732 0 11.3766 0 10.0178ZM2.20249 10.0178C2.20249 12.1226 2.96625 13.952 4.50266 15.5062C6.03908 17.0426 7.86856 17.8064 10.0089 17.8064C11.4121 17.8064 12.7176 17.46 13.9076 16.7584C15.0977 16.0568 16.0568 15.1155 16.7584 13.9165C17.46 12.7176 17.8153 11.421 17.8153 10.0178C17.8153 8.61456 17.46 7.30906 16.7584 6.11012C16.0568 4.91119 15.1066 3.96092 13.9076 3.25933C12.7087 2.55773 11.4121 2.21137 10.0089 2.21137C8.60568 2.21137 7.30018 2.55773 6.11012 3.25933C4.92007 3.96092 3.96092 4.91119 3.25044 6.11012C2.53996 7.30906 2.20249 8.61456 2.20249 10.0178ZM9.23623 10.0178V4.10302C9.23623 3.89876 9.30728 3.72114 9.44938 3.57904C9.59147 3.43694 9.76909 3.3659 9.97336 3.3659C10.1776 3.3659 10.3552 3.43694 10.4973 3.57904C10.6394 3.72114 10.7105 3.89876 10.7105 4.10302V9.27176H14.0675C14.2718 9.27176 14.4494 9.34281 14.5915 9.4849C14.7336 9.627 14.8046 9.80462 14.8046 10.0089C14.8046 10.2043 14.7336 10.3819 14.5915 10.5329C14.4494 10.6838 14.2718 10.7549 14.0675 10.7549H10.1243C10.0977 10.7638 10.0444 10.7638 9.96448 10.7638C9.86684 10.7655 9.76987 10.7473 9.67953 10.7102C9.58919 10.6732 9.5074 10.618 9.43919 10.5481C9.37097 10.4782 9.31778 10.3951 9.28287 10.3039C9.24797 10.2127 9.2321 10.1153 9.23623 10.0178Z" fill="black"/>
</svg>