<svg xmlns="http://www.w3.org/2000/svg" width="40" height="42" viewBox="0 0 40 42" fill="none">
  <path d="M4.82203 32.3135V36.1355H1V40.9999H14.5508V36.1355H10.7288V32.3135H4.82203Z" stroke="#FFFAF3" stroke-width="1.91915" stroke-linecap="round" stroke-linejoin="round"/>
  <path d="M7.60175 5.55957V31.6189" stroke="#FFFAF3" stroke-width="1.91915" stroke-linecap="round"/>
  <path d="M8.01253 7.12456C7.53358 6.89769 6.96141 7.10204 6.73454 7.58098C6.50767 8.05992 6.71202 8.6321 7.19096 8.85897L8.01253 7.12456ZM24.2797 6.60202L24.6466 7.48868L24.2797 6.60202ZM38.178 7.99176L39.0784 8.32349C39.2378 7.89091 39.067 7.40612 38.6717 7.16893L38.178 7.99176ZM38.5255 20.1529L38.2061 21.0578C38.5994 21.1966 39.0373 21.0654 39.2896 20.7334C39.5418 20.4013 39.5507 19.9443 39.3116 19.6026L38.5255 20.1529ZM23.5848 19.1105L23.1188 18.2717L23.5848 19.1105ZM8.56132 19.458C8.56132 18.928 8.1317 18.4984 7.60175 18.4984C7.07179 18.4984 6.64217 18.928 6.64217 19.458H8.56132ZM7.19096 8.85897C8.361 9.41319 10.1508 10.1643 12.9715 10.2108C15.7707 10.257 19.5221 9.60917 24.6466 7.48868L23.9128 5.71536C18.961 7.76438 15.4737 8.33265 13.0032 8.2919C10.5541 8.25151 9.04306 7.6127 8.01253 7.12456L7.19096 8.85897ZM24.6466 7.48868C31.4857 4.65868 35.957 7.7782 37.6843 8.81459L38.6717 7.16893C36.9244 6.12057 31.6936 2.49572 23.9128 5.71536L24.6466 7.48868ZM37.2776 7.66003C36.8214 8.89837 36.415 11.3609 36.3587 13.8333C36.3303 15.0829 36.39 16.3743 36.5904 17.5506C36.7881 18.7117 37.1361 19.8413 37.7394 20.7032L39.3116 19.6026C38.942 19.0746 38.6587 18.2643 38.4823 17.2284C38.3084 16.2077 38.2508 15.0452 38.2774 13.877C38.3312 11.514 38.7239 9.28572 39.0784 8.32349L37.2776 7.66003ZM38.8448 19.248C37.2344 18.6796 30.9531 13.9193 23.1188 18.2717L24.0508 19.9493C30.8965 16.1462 35.8787 20.2363 38.2061 21.0578L38.8448 19.248ZM23.1188 18.2717C20.1991 19.8937 16.3977 20.406 13.2868 20.2799C11.7369 20.2171 10.415 19.9977 9.50973 19.7106C9.051 19.565 8.75148 19.4183 8.58739 19.3018C8.39068 19.1622 8.56132 19.2006 8.56132 19.458H6.64217C6.64217 20.1496 7.11683 20.6115 7.4766 20.8669C7.86899 21.1454 8.37839 21.3651 8.92946 21.5399C10.0438 21.8934 11.545 22.13 13.2091 22.1975C16.5261 22.332 20.7162 21.8019 24.0508 19.9493L23.1188 18.2717Z" fill="#FFFAF3"/>
  <circle cx="7.6019" cy="2.77966" r="1.82009" stroke="#FFFAF3" stroke-width="1.91915"/>
</svg>