<svg xmlns="http://www.w3.org/2000/svg" width="42" height="46" viewBox="0 0 42 46" fill="none">
  <path d="M24.2348 22.9719C24.2348 24.9515 22.5988 26.5599 20.6192 26.5462C18.6396 26.5324 17.0449 24.8965 17.0587 22.9169C17.0724 20.9648 18.6946 19.3701 20.6467 19.3701C22.6401 19.3701 24.2485 20.9923 24.2348 22.9719ZM22.4476 22.9582C22.4476 21.9684 21.6503 21.171 20.6605 21.1573C19.6707 21.1573 18.8733 21.9546 18.8596 22.9444C18.8596 23.9342 19.6569 24.7453 20.6467 24.7453C21.6365 24.7453 22.4476 23.948 22.4476 22.9582Z" fill="#FFFAF3"/>
  <path d="M20.9214 0C21.4026 0.261198 21.5676 0.659869 21.5538 1.20976C21.5263 3.0244 21.5401 4.85279 21.5401 6.66743C21.5401 7.24481 21.2376 7.62974 20.7565 7.69847C20.2478 7.76721 19.7667 7.38229 19.7529 6.84614C19.7392 4.85279 19.7392 2.84569 19.7529 0.852331C19.7529 0.426165 20.0554 0.206209 20.3716 0C20.564 0 20.7427 0 20.9214 0Z" fill="#FFFAF3"/>
  <path d="M20.5229 35.5091C16.5224 35.4816 12.7557 34.2031 9.27762 32.0311C5.74457 29.8315 2.78891 27.0133 0.328144 23.659C-0.111768 23.0678 -0.111768 22.8066 0.341892 22.2155C3.62749 17.8301 7.6142 14.2696 12.7007 12.0838C18.2958 9.67799 23.8635 9.84296 29.3486 12.4137C34.1052 14.6545 37.8719 18.0776 40.9926 22.2705C41.3638 22.7654 41.3775 23.0816 41.0338 23.5352C37.4595 28.333 33.0741 32.141 27.3965 34.2719C25.2382 35.0967 22.9836 35.4954 20.5229 35.5091ZM20.5366 33.722C22.7774 33.7082 24.8395 33.337 26.8329 32.5947C31.8781 30.7113 35.7824 27.357 39.0955 23.2191C39.2604 23.0128 39.2329 22.8754 39.0817 22.6829C36.4697 19.3973 33.4316 16.5929 29.7061 14.6133C23.9735 11.5476 18.1721 11.3689 12.3158 14.2558C8.27407 16.2492 5.01596 19.1911 2.22527 22.6967C2.03281 22.9441 2.12904 23.0816 2.28026 23.274C4.53481 26.1197 7.13304 28.5942 10.2262 30.5051C13.4018 32.4847 16.8386 33.6945 20.5366 33.722Z" fill="#FFFAF3"/>
  <path d="M21.554 42.094C21.554 43.0013 21.554 43.9087 21.554 44.816C21.554 45.5033 21.1966 45.9158 20.6467 45.902C20.1106 45.902 19.7669 45.4896 19.7669 44.8297C19.7669 42.9601 19.7669 41.1042 19.7669 39.2346C19.7669 38.5885 20.1243 38.176 20.6742 38.1898C21.2103 38.1898 21.554 38.6022 21.554 39.2621C21.554 40.2106 21.554 41.1455 21.554 42.094Z" fill="#FFFAF3"/>
  <path d="M8.3428 11.4374C8.32906 12.2348 7.60045 12.6472 7.00932 12.331C6.88559 12.2623 6.77562 12.1523 6.66564 12.0561C5.48337 10.8601 4.30111 9.69154 3.14634 8.48178C2.94013 8.27557 2.76141 7.9044 2.78891 7.62945C2.8164 7.36825 3.10509 7.02457 3.35255 6.92834C3.6 6.83211 4.05366 6.91459 4.24612 7.09331C5.55211 8.33056 6.81686 9.6228 8.08161 10.915C8.23283 11.08 8.28782 11.3275 8.3428 11.4374Z" fill="#FFFAF3"/>
  <path d="M38.6831 7.68428C38.4907 8.00046 38.3944 8.26166 38.2157 8.44038C37.0197 9.66388 35.7962 10.8736 34.5864 12.0834C34.1465 12.5233 33.6241 12.5371 33.2392 12.1659C32.8543 11.781 32.8818 11.2723 33.3217 10.8187C34.5314 9.59515 35.7412 8.39913 36.951 7.17563C37.2672 6.85944 37.6521 6.69447 38.037 6.94192C38.2982 7.10689 38.4632 7.42308 38.6831 7.68428Z" fill="#FFFAF3"/>
  <path d="M3.61374 40.0866C3.33879 39.8666 3.00886 39.7291 2.88513 39.4954C2.77515 39.2617 2.84389 38.9043 2.88513 38.6156C2.89888 38.5056 3.03635 38.3957 3.13258 38.3132C4.31485 37.1309 5.48337 35.9349 6.67938 34.7801C6.89934 34.5739 7.25676 34.3952 7.53171 34.4089C7.77916 34.4227 8.0816 34.6839 8.24657 34.9176C8.45278 35.22 8.35655 35.5912 8.09535 35.8662C7.75167 36.2373 7.39424 36.5948 7.02306 36.9522C6.14324 37.832 5.27716 38.7118 4.39733 39.5642C4.20487 39.7704 3.92993 39.8804 3.61374 40.0866Z" fill="#FFFAF3"/>
  <path d="M33.789 34.2441C34.119 34.4366 34.3802 34.5191 34.5589 34.6978C35.7824 35.8938 36.9921 37.1173 38.2019 38.3271C38.6693 38.7945 38.6831 39.3306 38.2844 39.7018C37.8995 40.073 37.3908 40.0317 36.9372 39.5918C35.7137 38.3821 34.5039 37.1723 33.2941 35.9625C32.9917 35.6601 32.8267 35.2889 33.0604 34.9178C33.2116 34.6566 33.5278 34.4778 33.789 34.2441Z" fill="#FFFAF3"/>
  <circle cx="20.75" cy="23" r="7" stroke="#FFFAF3" stroke-width="2"/>
</svg>