<svg width="48" height="48" viewBox="0 0 48 48" fill="none" xmlns="http://www.w3.org/2000/svg">
<path d="M19.4493 13.1667H28.5493C32.016 13.1667 34.8327 15.9834 34.8327 19.4501V28.5501C34.8327 30.2165 34.1707 31.8147 32.9923 32.9931C31.814 34.1714 30.2158 34.8334 28.5493 34.8334H19.4493C15.9827 34.8334 13.166 32.0167 13.166 28.5501V19.4501C13.166 17.7836 13.828 16.1854 15.0064 15.0071C16.1847 13.8287 17.7829 13.1667 19.4493 13.1667ZM19.2327 15.3334C18.1983 15.3334 17.2064 15.7443 16.475 16.4757C15.7436 17.2071 15.3327 18.1991 15.3327 19.2334V28.7667C15.3327 30.9226 17.0768 32.6667 19.2327 32.6667H28.766C29.8004 32.6667 30.7923 32.2559 31.5237 31.5245C32.2551 30.7931 32.666 29.8011 32.666 28.7667V19.2334C32.666 17.0776 30.9218 15.3334 28.766 15.3334H19.2327ZM29.6868 16.9584C30.046 16.9584 30.3904 17.1011 30.6444 17.355C30.8983 17.609 31.041 17.9534 31.041 18.3126C31.041 18.6717 30.8983 19.0162 30.6444 19.2701C30.3904 19.5241 30.046 19.6667 29.6868 19.6667C29.3277 19.6667 28.9833 19.5241 28.7293 19.2701C28.4754 19.0162 28.3327 18.6717 28.3327 18.3126C28.3327 17.9534 28.4754 17.609 28.7293 17.355C28.9833 17.1011 29.3277 16.9584 29.6868 16.9584ZM23.9993 18.5834C25.4359 18.5834 26.8137 19.1541 27.8295 20.1699C28.8453 21.1857 29.416 22.5635 29.416 24.0001C29.416 25.4367 28.8453 26.8144 27.8295 27.8302C26.8137 28.8461 25.4359 29.4167 23.9993 29.4167C22.5628 29.4167 21.185 28.8461 20.1692 27.8302C19.1534 26.8144 18.5827 25.4367 18.5827 24.0001C18.5827 22.5635 19.1534 21.1857 20.1692 20.1699C21.185 19.1541 22.5628 18.5834 23.9993 18.5834ZM23.9993 20.7501C23.1374 20.7501 22.3107 21.0925 21.7013 21.702C21.0918 22.3115 20.7493 23.1381 20.7493 24.0001C20.7493 24.862 21.0918 25.6887 21.7013 26.2982C22.3107 26.9077 23.1374 27.2501 23.9993 27.2501C24.8613 27.2501 25.688 26.9077 26.2974 26.2982C26.9069 25.6887 27.2493 24.862 27.2493 24.0001C27.2493 23.1381 26.9069 22.3115 26.2974 21.702C25.688 21.0925 24.8613 20.7501 23.9993 20.7501Z" fill="black"/>
<circle cx="24" cy="24" r="23.5" stroke="black"/>
</svg>
