<svg xmlns="http://www.w3.org/2000/svg" width="48" height="48" viewBox="0 0 48 48" fill="none">
  <path d="M19.5352 34H15.0352V19H19.5352V34ZM36.0352 34H31.5352V25.987C31.5352 23.899 30.7912 22.8595 29.3167 22.8595C28.1482 22.8595 27.4072 23.4415 27.0352 24.607V34H22.5352C22.5352 34 22.5952 20.5 22.5352 19H26.0872L26.3617 22H26.4547C27.3772 20.5 28.8517 19.483 30.8737 19.483C32.4112 19.483 33.6547 19.9105 34.6042 20.9845C35.5597 22.06 36.0352 23.503 36.0352 25.5295V34Z" fill="black"/>
  <path d="M17.2859 17.5C18.57 17.5 19.6109 16.4926 19.6109 15.25C19.6109 14.0074 18.57 13 17.2859 13C16.0019 13 14.9609 14.0074 14.9609 15.25C14.9609 16.4926 16.0019 17.5 17.2859 17.5Z" fill="black"/>
  <circle cx="24" cy="24" r="23.5" stroke="black"/>
</svg>