<svg xmlns="http://www.w3.org/2000/svg" width="152" height="45" viewBox="0 0 152 45" fill="none">
  <path d="M51.2054 2.46643V5.005H54.4234V6.8479H51.2054V10.8876H49.4213V0.611328H54.8175V2.45423H51.2054V2.46643Z" fill="#9B4121"/>
  <path d="M61.9869 3.44287V10.8755H60.3122V9.96015C59.94 10.5704 59.349 11.0586 58.3748 11.0586C56.6892 11.0586 55.923 9.53299 55.923 7.95859V3.44287H57.5977V7.58025C57.5977 8.53221 57.9479 9.25228 58.8893 9.25228C59.8853 9.25228 60.3122 8.44678 60.3122 7.58025V3.44287H61.9869Z" fill="#9B4121"/>
  <path d="M69.6161 6.37195V10.8877H67.9414V6.7503C67.9414 5.79833 67.5911 5.07826 66.6388 5.07826C65.6537 5.07826 65.2159 5.89597 65.2159 6.7503V10.8877H63.5631V3.44284H65.2159V4.35819C65.5881 3.76016 66.1901 3.27197 67.1642 3.27197C68.8499 3.27197 69.6161 4.79755 69.6161 6.37195Z" fill="#9B4121"/>
  <path d="M77.8472 0.611328V10.8754H76.1835V10.0089C75.7457 10.6069 75.0889 11.0707 74.0491 11.0707C71.9804 11.0707 70.7982 9.11797 70.7982 7.16522C70.7982 5.21248 71.9804 3.25974 74.0491 3.25974C75.0889 3.25974 75.7457 3.6991 76.1835 4.32154V0.611328H77.8472ZM76.0959 7.17743C76.0959 6.03019 75.4501 5.06602 74.3118 5.06602C73.1734 5.06602 72.5057 6.03019 72.5057 7.17743C72.5057 8.32467 73.1625 9.28883 74.3118 9.28883C75.4611 9.28883 76.0959 8.32467 76.0959 7.17743Z" fill="#9B4121"/>
  <path d="M85.0166 6.39636V10.8877H83.3419V10.0944C83.0245 10.668 82.2911 11.0829 81.3936 11.0829C80.3975 11.0707 79.0293 10.4727 79.0293 8.88611C79.0293 6.44518 81.7438 6.44518 82.6304 6.44518C82.8931 6.44518 83.1996 6.44518 83.3528 6.44518C83.3419 5.37117 83.0026 4.9074 81.9737 4.9074C81.3717 4.9074 80.8244 5.26133 80.5836 5.4444L79.4343 4.48023C80.1676 3.73575 81.0871 3.27197 82.2145 3.27197C84.327 3.27197 85.0166 4.62669 85.0166 6.39636ZM83.3528 7.61683C83.3091 7.61683 83.2762 7.61683 83.2434 7.61683C82.0503 7.61683 80.7478 7.60462 80.7478 8.71525C80.7478 9.27666 81.0761 9.72823 81.908 9.72823C82.7618 9.72823 83.2105 9.19123 83.3528 8.87391V7.61683Z" fill="#9B4121"/>
  <path d="M91.2666 8.3369L92.7224 9.26445C92.1094 10.3629 91.0148 11.0829 89.7232 11.0829C87.7202 11.0829 86.1987 9.34989 86.1987 7.17746C86.1987 4.99283 87.7202 3.27197 89.7232 3.27197C91.0148 3.27197 92.1094 3.99205 92.7224 5.07826L91.2666 6.01802C90.9601 5.4444 90.4347 5.06606 89.7232 5.06606C88.6068 5.06606 87.9063 6.01802 87.9063 7.17746C87.9063 8.3369 88.6068 9.28886 89.7232 9.28886C90.4457 9.28886 90.971 8.91052 91.2666 8.3369Z" fill="#9B4121"/>
  <path d="M93.6637 1.36748C93.6637 0.830478 94.0577 0.378906 94.5503 0.378906C95.0538 0.378906 95.4478 0.818274 95.4478 1.36748C95.4478 1.9289 95.0538 2.36826 94.5503 2.36826C94.0577 2.35606 93.6637 1.91669 93.6637 1.36748ZM93.7184 3.44227H95.3931V10.8749H93.7184V3.44227Z" fill="#9B4121"/>
  <path d="M103.613 7.17735C103.613 9.34978 102.103 11.0828 100.089 11.0828C98.0858 11.0828 96.5753 9.34978 96.5753 7.17735C96.5753 4.99272 98.0858 3.27187 100.089 3.27187C102.103 3.27187 103.613 4.99272 103.613 7.17735ZM101.906 7.17735C101.906 6.01791 101.205 5.06595 100.089 5.06595C98.9834 5.06595 98.2828 6.01791 98.2828 7.17735C98.2828 8.33679 98.9834 9.28876 100.089 9.28876C101.205 9.28876 101.906 8.33679 101.906 7.17735ZM101.928 0.220703L100.647 2.27108H99.3008L100.166 0.220703H101.928Z" fill="#9B4121"/>
  <path d="M110.848 6.37195V10.8877H109.174V6.7503C109.174 5.79833 108.824 5.07826 107.871 5.07826C106.886 5.07826 106.448 5.89597 106.448 6.7503V10.8877H104.796V3.44284H106.448V4.35819C106.82 3.76016 107.422 3.27197 108.397 3.27197C110.082 3.27197 110.848 4.79755 110.848 6.37195Z" fill="#9B4121"/>
  <path d="M54.6642 13.6455V37.591H49.4213V13.6455H54.6642Z" fill="#9B4121"/>
  <path d="M74.0819 20.2485V36.0779C74.0819 41.0086 70.8967 44.4869 65.3691 44.4869C61.9978 44.4869 59.0206 43.0223 57.8275 40.8621L61.5381 38.3968C62.0307 39.2145 63.377 40.0078 65.1611 40.0078C68.1931 40.0078 69.1125 38.1649 69.1125 35.4554V34.6743C68.2588 35.907 66.9015 36.798 64.7561 36.798C60.0057 36.798 57.2693 32.8681 57.2693 28.3157C57.2693 23.7634 59.9729 19.8335 64.7561 19.8335C66.8687 19.8335 68.2478 20.7855 69.1125 22.128V20.2485H74.0819ZM68.9264 28.3279C68.9264 26.0335 67.4816 24.6299 65.6099 24.6299C63.5521 24.6299 62.2934 26.2043 62.2934 28.3279C62.2934 30.4515 63.5521 32.0259 65.6099 32.0259C67.4816 32.0137 68.9264 30.6102 68.9264 28.3279Z" fill="#9B4121"/>
  <path d="M92.394 26.7535V37.5913H87.3918V28.2547C87.3918 26.2653 86.2863 25.2768 84.9071 25.2768C83.4623 25.2768 82.4225 26.3386 82.4225 28.2547V37.5913H77.4531V20.2485H82.4225V21.8595C83.3091 20.7366 84.6663 19.8457 86.6913 19.8457C90.5551 19.8457 92.394 23.263 92.394 26.7535Z" fill="#9B4121"/>
  <path d="M109.382 26.8146V37.5913H104.412V35.9802C103.581 37.3106 101.742 38.0306 100.144 38.0306C98.053 38.0306 94.835 37.1397 94.835 32.9291C94.835 27.1807 101.523 27.1807 102.563 27.1807C103.263 27.1807 104.062 27.1807 104.401 27.1807V27.1075C104.401 25.4598 103.668 24.3004 101.851 24.3004C100.592 24.3004 99.5197 24.8496 98.9068 25.3988L95.6668 22.9579C97.3525 20.9685 99.6839 19.8457 102.661 19.8457C107.63 19.8457 109.382 22.6772 109.382 26.8146ZM104.412 29.9634C104.292 29.9634 104.139 29.9634 104.018 29.9634C101.534 29.9634 99.8809 30.476 99.8809 32.2212C99.8809 33.4905 100.8 33.9665 101.873 33.9665C102.946 33.9665 103.986 33.3807 104.423 32.7338V29.9634H104.412Z" fill="#9B4121"/>
  <path d="M122.965 31.0252L127.256 33.8933C125.844 36.3952 123.272 38.0306 120.174 38.0306C115.325 38.0306 111.834 34.0641 111.834 28.9382C111.834 23.7756 115.325 19.8457 120.174 19.8457C123.272 19.8457 125.844 21.4567 127.256 23.9831L122.965 26.8512C122.385 25.8626 121.4 25.2035 120.174 25.2035C118.182 25.2035 116.858 26.9122 116.858 28.926C116.858 30.9397 118.171 32.624 120.174 32.624C121.411 32.6362 122.385 31.9771 122.965 31.0252Z" fill="#9B4121"/>
  <path d="M129.139 15.391C129.139 13.78 130.299 12.4863 131.744 12.4863C133.189 12.4863 134.349 13.78 134.349 15.391C134.349 17.002 133.189 18.3324 131.744 18.3324C130.299 18.3324 129.139 17.002 129.139 15.391ZM129.259 20.2485H134.228V37.5913H129.259V20.2485Z" fill="#9B4121"/>
  <path d="M151.216 26.8146V37.5913H146.247V35.9802C145.415 37.3105 143.576 38.0306 141.978 38.0306C139.887 38.0306 136.669 37.1397 136.669 32.9291C136.669 27.1807 143.357 27.1807 144.397 27.1807C145.097 27.1807 145.897 27.1807 146.236 27.1807V27.1075C146.236 25.4598 145.502 24.3004 143.685 24.3004C142.427 24.3004 141.354 24.8496 140.741 25.3988L137.49 22.9335C139.176 20.9441 141.507 19.8213 144.485 19.8213C149.476 19.8457 151.216 22.6772 151.216 26.8146ZM146.247 29.9633C146.126 29.9633 145.973 29.9633 145.853 29.9633C143.368 29.9633 141.715 30.4759 141.715 32.2212C141.715 33.4905 142.635 33.9665 143.707 33.9665C144.78 33.9665 145.82 33.3807 146.258 32.7338V29.9633H146.247Z" fill="#9B4121"/>
  <path d="M39.8 7.27525C39.3074 6.48195 38.6507 5.68865 37.8079 5.00519C35.2247 2.63749 32.2037 1.51466 28.8543 1.66112C26.2164 1.78316 23.3815 2.68631 20.4152 4.34614C15.4349 7.141 11.8447 11.0953 11.6915 11.2662C11.3631 11.6201 11.3631 12.2059 11.6915 12.5721C11.8557 12.7551 12.0636 12.8406 12.2716 12.8406C12.4796 12.8406 12.6875 12.7551 12.8517 12.5721C12.8845 12.5355 16.431 8.64217 21.1923 5.96936C24.684 4.01661 27.8692 3.21111 30.726 3.55284C23.6442 5.16385 13.0378 15.1595 12.5781 15.5988C12.2278 15.9283 12.184 16.5142 12.4796 16.8925C12.6437 17.1122 12.8736 17.222 13.1035 17.222C13.2895 17.222 13.4866 17.1488 13.6398 17.0024C13.7493 16.8925 24.7059 6.56738 31.339 5.2981C34.2724 4.73669 36.5929 5.66424 38.2567 8.05635C35.9909 7.15321 32.8714 7.6536 28.5916 9.58193C21.455 12.7918 14.001 20.3586 13.6836 20.676C13.3443 21.0177 13.3224 21.6035 13.6289 21.9696C13.793 22.1649 14.012 22.2626 14.2418 22.2626C14.4388 22.2626 14.6359 22.1771 14.8 22.0185C14.8767 21.9452 22.3416 14.3662 29.2155 11.2784C33.7251 9.25241 36.8009 8.92288 38.596 10.2776C39.2199 10.7414 39.7124 11.4492 40.0846 12.3768C40.1393 12.4988 40.2488 12.7796 40.3035 12.987C40.4239 13.3776 40.5224 13.8047 40.61 14.2563C40.5443 14.2075 40.4786 14.1709 40.413 14.1343C38.4208 12.9138 35.9581 12.6087 33.1012 13.2555C30.8902 13.7559 28.4274 14.8177 25.7895 16.4165C21.3346 19.1016 17.9305 22.348 17.7882 22.4944C17.438 22.824 17.4051 23.4098 17.7007 23.7881C17.9962 24.1787 18.5216 24.2153 18.8609 23.8858C18.8937 23.8492 22.2978 20.6149 26.5995 18.0153C30.4524 15.6965 35.8377 13.4142 39.6249 15.7453C39.6249 15.7453 39.6249 15.7453 39.6358 15.7453C40.2597 16.1236 40.6428 16.7217 40.7851 17.576C41.2448 20.3098 39.2199 25.2405 35.8814 29.5854C35.5859 29.9759 35.6297 30.5495 35.969 30.879C36.1222 31.0255 36.3193 31.0987 36.5053 31.0987C36.7352 31.0987 36.9651 30.9889 37.1292 30.7814C39.8328 27.2787 42.624 22.0795 42.624 17.8567C42.6021 16.2335 42.3503 11.3638 39.8 7.27525Z" fill="#C95E29"/>
  <path d="M33.1451 32.2461C29.3141 35.6268 25.0015 36.5787 20.2839 35.102C20.3277 35.102 20.3715 35.102 20.4152 35.102C20.8202 35.102 21.2143 35.0775 21.6083 35.0409C29.6862 34.1622 33.2764 29.1339 33.4187 28.9264C33.7033 28.5236 33.6376 27.95 33.2764 27.6327C32.9152 27.3154 32.4008 27.3886 32.1162 27.7914C32.0833 27.8402 28.8325 32.4047 21.4441 33.2102C18.7843 33.5031 16.2559 32.6244 14.1434 31.4161C14.5812 31.5138 15.03 31.587 15.4897 31.6358C16.0589 31.6969 16.628 31.7335 17.2082 31.7335C20.8312 31.7335 24.5308 30.452 27.9897 27.9988C30.9997 25.8508 32.7729 23.593 32.8495 23.4953C33.1451 23.117 33.1122 22.5312 32.762 22.2016C32.4227 21.8721 31.8973 21.9087 31.6017 22.2993C31.5798 22.3237 29.8833 24.4839 27.0702 26.4855C23.3377 29.1339 19.4958 30.2567 15.6648 29.8173C13.1801 29.5366 10.9472 28.5725 8.98794 26.937C10.6736 27.6083 12.5781 27.9622 14.5483 27.9622C15.3693 27.9622 16.2011 27.9012 17.033 27.7792C21.3566 27.1323 25.5378 24.8378 29.1499 21.1398C29.4892 20.7981 29.5111 20.2123 29.2046 19.8461C28.8981 19.4678 28.3728 19.4434 28.0444 19.7851C21.0063 26.9981 12.7642 27.2788 8.09039 24.4717C6.54705 23.5564 4.7848 21.5914 3.4932 19.1017C2.35485 16.4655 1.87324 14.3052 1.81851 14.0367C1.4792 11.9497 1.57771 9.05724 3.50415 6.51867C5.98882 3.24782 8.92227 1.79547 12.2169 2.18602C14.7125 2.49114 16.5076 3.78483 16.5514 3.80924C16.9345 4.08994 17.438 3.9679 17.6898 3.55294C17.9415 3.12578 17.843 2.56436 17.4599 2.28366C17.3723 2.22263 15.3474 0.745871 12.4687 0.379732C9.78698 0.0380014 5.83558 0.623825 2.2454 5.33482C0.30801 7.87338 -0.392514 11.1076 0.209499 14.6836C0.505032 16.4166 1.0961 18.1619 1.93892 19.8217C2.30012 20.6639 2.72701 21.5426 3.21956 22.4457C3.81063 23.5075 4.44548 24.4839 5.13506 25.3748C5.27735 25.5823 6.83164 27.7914 9.34915 30.0614C9.71036 30.452 12.7423 33.6862 17.1534 35.7976C19.649 36.9937 22.0899 37.5917 24.4433 37.5917C27.924 37.5917 31.2186 36.2858 34.163 33.6862C34.5242 33.3689 34.579 32.7953 34.2944 32.3925C34.0207 31.9898 33.4953 31.9287 33.1451 32.2461Z" fill="#C95E29"/>
</svg>