<svg xmlns="http://www.w3.org/2000/svg" width="198" height="58" viewBox="0 0 198 58" fill="none">
  <path d="M67.0476 2.89504V6.1678H71.2612V8.54369H67.0476V13.7518H64.7114V0.503418H71.7772V2.87931H67.0476V2.89504Z" fill="white"/>
  <path d="M81.1646 4.15381V13.736H78.9718V12.556C78.4845 13.3427 77.7106 13.9721 76.435 13.9721C74.2279 13.9721 73.2246 12.0053 73.2246 9.97553V4.15381H75.4174V9.48776C75.4174 10.715 75.876 11.6434 77.1086 11.6434C78.4128 11.6434 78.9718 10.6049 78.9718 9.48776V4.15381H81.1646Z" fill="white"/>
  <path d="M91.154 7.93013V13.7518H88.9612V8.41789C88.9612 7.19061 88.5026 6.26228 87.2557 6.26228C85.9658 6.26228 85.3925 7.31649 85.3925 8.41789V13.7518H83.2284V4.15388H85.3925V5.33395C85.8798 4.56297 86.6681 3.93359 87.9436 3.93359C90.1508 3.93359 91.154 5.90039 91.154 7.93013Z" fill="white"/>
  <path d="M101.932 0.503418V13.736H99.7534V12.6189C99.1801 13.3899 98.3202 13.9878 96.9587 13.9878C94.2499 13.9878 92.702 11.4703 92.702 8.95278C92.702 6.43528 94.2499 3.91778 96.9587 3.91778C98.3202 3.91778 99.1801 4.48422 99.7534 5.28667V0.503418H101.932ZM99.6388 8.96851C99.6388 7.48948 98.7932 6.24647 97.3026 6.24647C95.8121 6.24647 94.9378 7.48948 94.9378 8.96851C94.9378 10.4475 95.7978 11.6906 97.3026 11.6906C98.8075 11.6906 99.6388 10.4475 99.6388 8.96851Z" fill="white"/>
  <path d="M111.319 7.9616V13.7518H109.127V12.7291C108.711 13.4686 107.751 14.0036 106.575 14.0036C105.271 13.9879 103.48 13.2169 103.48 11.1714C103.48 8.02453 107.034 8.02453 108.195 8.02453C108.539 8.02453 108.94 8.02453 109.141 8.02453C109.127 6.63991 108.682 6.042 107.335 6.042C106.547 6.042 105.83 6.4983 105.515 6.73431L104.01 5.4913C104.97 4.5315 106.174 3.93359 107.65 3.93359C110.416 3.93359 111.319 5.68011 111.319 7.9616ZM109.141 9.53503C109.084 9.53503 109.041 9.53503 108.998 9.53503C107.435 9.53503 105.73 9.5193 105.73 10.9511C105.73 11.6749 106.16 12.2571 107.249 12.2571C108.367 12.2571 108.955 11.5648 109.141 11.1557V9.53503Z" fill="white"/>
  <path d="M119.503 10.4634L121.409 11.6592C120.607 13.0753 119.173 14.0036 117.482 14.0036C114.859 14.0036 112.867 11.7693 112.867 8.9686C112.867 6.15214 114.859 3.93359 117.482 3.93359C119.173 3.93359 120.607 4.86192 121.409 6.26228L119.503 7.47383C119.102 6.73431 118.414 6.24655 117.482 6.24655C116.02 6.24655 115.103 7.47383 115.103 8.9686C115.103 10.4634 116.02 11.6906 117.482 11.6906C118.428 11.6906 119.116 11.2029 119.503 10.4634Z" fill="white"/>
  <path d="M122.642 1.47859C122.642 0.786274 123.158 0.204102 123.803 0.204102C124.462 0.204102 124.978 0.770539 124.978 1.47859C124.978 2.20237 124.462 2.76881 123.803 2.76881C123.158 2.75307 122.642 2.18663 122.642 1.47859ZM122.714 4.15343H124.906V13.7357H122.714V4.15343Z" fill="white"/>
  <path d="M135.67 8.9686C135.67 11.7693 133.692 14.0036 131.055 14.0036C128.432 14.0036 126.454 11.7693 126.454 8.9686C126.454 6.15214 128.432 3.9336 131.055 3.9336C133.692 3.9336 135.67 6.15214 135.67 8.9686ZM133.434 8.9686C133.434 7.47383 132.517 6.24655 131.055 6.24655C129.607 6.24655 128.69 7.47383 128.69 8.9686C128.69 10.4634 129.607 11.6906 131.055 11.6906C132.517 11.6906 133.434 10.4634 133.434 8.9686ZM133.463 0L131.786 2.64338H130.023L131.155 0H133.463Z" fill="white"/>
  <path d="M145.143 7.93013V13.7518H142.95V8.41789C142.95 7.19061 142.492 6.26228 141.245 6.26228C139.955 6.26228 139.382 7.31649 139.382 8.41789V13.7518H137.218V4.15388H139.382V5.33395C139.869 4.56297 140.657 3.93359 141.933 3.93359C144.14 3.93359 145.143 5.90039 145.143 7.93013Z" fill="white"/>
  <path d="M71.5765 17.3077V48.1786H64.7114V17.3077H71.5765Z" fill="white"/>
  <path d="M97.0015 25.8201V46.2276C97.0015 52.5843 92.8309 57.0686 85.5932 57.0686C81.1789 57.0686 77.2806 55.1805 75.7184 52.3955L80.5769 49.2171C81.2219 50.2713 82.9847 51.2941 85.3209 51.2941C89.2909 51.2941 90.4948 48.9182 90.4948 45.4252V44.4182C89.3769 46.0073 87.5997 47.1559 84.7906 47.1559C78.5704 47.1559 74.9874 42.0895 74.9874 36.2205C74.9874 30.3516 78.5275 25.2852 84.7906 25.2852C87.5567 25.2852 89.3625 26.5124 90.4948 28.2432V25.8201H97.0015ZM90.2511 36.2363C90.2511 33.2782 88.3593 31.4688 85.9085 31.4688C83.2141 31.4688 81.5659 33.4985 81.5659 36.2363C81.5659 38.9741 83.2141 41.0038 85.9085 41.0038C88.3593 40.9881 90.2511 39.1786 90.2511 36.2363Z" fill="white"/>
  <path d="M120.979 34.2064V48.1786H114.429V36.1418C114.429 33.5771 112.982 32.3026 111.176 32.3026C109.284 32.3026 107.923 33.6715 107.923 36.1418V48.1786H101.416V25.82H107.923V27.897C109.084 26.4494 110.861 25.3008 113.512 25.3008C118.571 25.3008 120.979 29.7064 120.979 34.2064Z" fill="white"/>
  <path d="M143.223 34.2851V48.1786H136.716V46.1016C135.627 47.8167 133.219 48.745 131.126 48.745C128.389 48.745 124.175 47.5964 124.175 42.168C124.175 34.7571 132.932 34.7571 134.294 34.7571C135.211 34.7571 136.257 34.7571 136.702 34.7571V34.6627C136.702 32.5386 135.741 31.0438 133.362 31.0438C131.714 31.0438 130.309 31.7519 129.507 32.4599L125.265 29.313C127.472 26.7483 130.524 25.3008 134.423 25.3008C140.93 25.3008 143.223 28.9512 143.223 34.2851ZM136.716 38.3446C136.558 38.3446 136.358 38.3446 136.2 38.3446C132.947 38.3446 130.782 39.0054 130.782 41.2554C130.782 42.8918 131.986 43.5055 133.391 43.5055C134.795 43.5055 136.157 42.7502 136.73 41.9163V38.3446H136.716Z" fill="white"/>
  <path d="M161.009 39.7135L166.627 43.4111C164.778 46.6366 161.41 48.745 157.354 48.745C151.005 48.745 146.433 43.6313 146.433 37.0229C146.433 30.3673 151.005 25.3008 157.354 25.3008C161.41 25.3008 164.778 27.3777 166.627 30.6347L161.009 34.3323C160.249 33.0578 158.959 32.2082 157.354 32.2082C154.746 32.2082 153.011 34.411 153.011 37.0072C153.011 39.6033 154.731 41.7747 157.354 41.7747C158.974 41.7904 160.249 40.9408 161.009 39.7135Z" fill="white"/>
  <path d="M169.092 19.5576C169.092 17.4807 170.611 15.8129 172.503 15.8129C174.395 15.8129 175.914 17.4807 175.914 19.5576C175.914 21.6346 174.395 23.3496 172.503 23.3496C170.611 23.3496 169.092 21.6346 169.092 19.5576ZM169.25 25.8199H175.756V48.1785H169.25V25.8199Z" fill="white"/>
  <path d="M198 34.285V48.1784H191.493V46.1015C190.404 47.8165 187.996 48.7449 185.904 48.7449C183.166 48.7449 178.953 47.5963 178.953 42.1679C178.953 34.757 187.71 34.757 189.071 34.757C189.988 34.757 191.035 34.757 191.479 34.757V34.6626C191.479 32.5384 190.519 31.0437 188.14 31.0437C186.491 31.0437 185.087 31.7517 184.284 32.4598L180.028 29.2814C182.235 26.7167 185.287 25.2692 189.186 25.2692C195.721 25.3006 198 28.951 198 34.285ZM191.493 38.3444C191.336 38.3444 191.135 38.3444 190.977 38.3444C187.724 38.3444 185.56 39.0053 185.56 41.2553C185.56 42.8917 186.764 43.5053 188.168 43.5053C189.573 43.5053 190.934 42.7501 191.508 41.9161V38.3444H191.493Z" fill="white"/>
  <path d="M52.1135 9.09449C51.4686 8.07176 50.6086 7.04902 49.5051 6.1679C46.1227 3.11543 42.167 1.66787 37.7814 1.85668C34.3274 2.01402 30.6154 3.17837 26.7314 5.31824C20.2103 8.92141 15.5093 14.0194 15.3087 14.2396C14.8787 14.6959 14.8787 15.4512 15.3087 15.9232C15.5237 16.1592 15.796 16.2694 16.0683 16.2694C16.3406 16.2694 16.6129 16.1592 16.8279 15.9232C16.8709 15.876 21.5145 10.8567 27.7489 7.41091C32.3209 4.89341 36.4915 3.85494 40.2322 4.29551C30.9593 6.37244 17.0715 19.2589 16.4696 19.8253C16.011 20.2502 15.9536 21.0054 16.3406 21.4932C16.5556 21.7764 16.8565 21.918 17.1575 21.918C17.4012 21.918 17.6591 21.8236 17.8598 21.6348C18.0031 21.4932 32.3495 8.1819 41.0348 6.54552C44.8758 5.82174 47.9142 7.01755 50.0927 10.1015C47.1259 8.93715 43.0413 9.58226 37.4374 12.0683C28.0929 16.2064 18.3328 25.9617 17.9171 26.3708C17.4728 26.8114 17.4442 27.5667 17.8455 28.0387C18.0604 28.2904 18.3471 28.4163 18.6481 28.4163C18.906 28.4163 19.164 28.3062 19.379 28.1016C19.4793 28.0072 29.2538 18.2362 38.2544 14.2554C44.1592 11.6435 48.1865 11.2186 50.537 12.9652C51.3539 13.5631 51.9989 14.4757 52.4862 15.6715C52.5578 15.8288 52.7011 16.1907 52.7728 16.4582C52.9305 16.9617 53.0594 17.5124 53.1741 18.0946C53.0881 18.0316 53.0021 17.9844 52.9161 17.9372C50.3077 16.3638 47.0829 15.9704 43.3423 16.8043C40.4472 17.4494 37.2225 18.8183 33.7684 20.8795C27.9353 24.3411 23.478 28.5265 23.2917 28.7153C22.833 29.1401 22.79 29.8953 23.177 30.3831C23.564 30.8866 24.2519 30.9338 24.6962 30.509C24.7392 30.4618 29.1965 26.2922 34.829 22.9407C39.8739 19.9512 46.9253 17.0089 51.8842 20.0142C51.8842 20.0142 51.8842 20.0142 51.8985 20.0142C52.7155 20.5019 53.2171 21.2729 53.4034 22.3743C54.0054 25.8988 51.3539 32.2555 46.9826 37.8569C46.5957 38.3604 46.653 39.1 47.0973 39.5248C47.2979 39.7136 47.5559 39.808 47.7996 39.808C48.1005 39.808 48.4015 39.6664 48.6165 39.3989C52.1565 34.8831 55.8112 28.1803 55.8112 22.7362C55.7825 20.6435 55.4529 14.3655 52.1135 9.09449Z" fill="white"/>
  <path d="M43.3996 41.2871C38.3834 45.6455 32.7365 46.8728 26.5594 44.9689C26.6167 44.9689 26.674 44.9689 26.7314 44.9689C27.2617 44.9689 27.7776 44.9375 28.2936 44.8903C38.8707 43.7574 43.5716 37.2748 43.7579 37.0073C44.1305 36.4881 44.0445 35.7486 43.5716 35.3395C43.0986 34.9304 42.425 35.0248 42.0524 35.544C42.0094 35.607 37.7528 41.4916 28.0786 42.5301C24.5959 42.9077 21.2852 41.7748 18.5191 40.2171C19.0924 40.343 19.68 40.4374 20.2819 40.5004C21.0272 40.579 21.7725 40.6262 22.5321 40.6262C27.276 40.6262 32.1202 38.9741 36.6492 35.8115C40.5905 33.0423 42.9123 30.1314 43.0126 30.0055C43.3996 29.5178 43.3566 28.7625 42.898 28.3377C42.4537 27.9129 41.7657 27.9601 41.3788 28.4636C41.3501 28.495 39.1286 31.28 35.4453 33.8605C30.558 37.2748 25.5275 38.7224 20.5112 38.1559C17.2579 37.7941 14.3341 36.551 11.7687 34.4426C13.9758 35.308 16.4696 35.7643 19.0494 35.7643C20.1243 35.7643 21.2135 35.6856 22.3028 35.5283C27.9639 34.6944 33.4388 31.7363 38.1684 26.9688C38.6127 26.5282 38.6413 25.773 38.24 25.301C37.8387 24.8132 37.1508 24.7817 36.7208 25.2223C27.5053 34.5213 16.7132 34.8832 10.5934 31.2643C8.5726 30.0842 6.26513 27.551 4.57394 24.3412C3.08341 20.9425 2.45279 18.1575 2.38113 17.8114C1.93684 15.1208 2.06583 11.3918 4.58828 8.11902C7.84166 3.9022 11.6827 2.02981 15.9966 2.53331C19.2643 2.92667 21.6148 4.59452 21.6721 4.62598C22.1738 4.98787 22.833 4.83053 23.1627 4.29556C23.4923 3.74486 23.3633 3.02108 22.8617 2.65919C22.747 2.58052 20.0956 0.676656 16.3263 0.204624C12.8149 -0.235938 7.64101 0.519313 2.94008 6.59278C0.403303 9.86553 -0.513952 14.0351 0.274314 18.6453C0.661281 20.8796 1.43521 23.1296 2.53879 25.2695C3.01175 26.3552 3.5707 27.488 4.21564 28.6524C4.98957 30.0213 5.82084 31.28 6.72376 32.4286C6.91008 32.6961 8.94524 35.544 12.2416 38.4706C12.7146 38.9741 16.6846 43.1437 22.4604 45.8658C25.7281 47.4078 28.9242 48.1787 32.0056 48.1787C36.5632 48.1787 40.8772 46.4952 44.7325 43.1437C45.2054 42.7346 45.2771 41.9951 44.9045 41.4759C44.5462 40.9567 43.8582 40.878 43.3996 41.2871Z" fill="white"/>
</svg>